<svg width="2660" height="258" viewBox="0 0 2660 258" fill="none" xmlns="http://www.w3.org/2000/svg">
<g clip-path="url(#clip0_65_61)">
<rect width="2660" height="258" rx="30" fill="#4804AD"/>
<path d="M1328.39 -854C1271.6 -854 1215.77 -849.752 1160.84 -843.051L1047.83 -550.531C1044.68 -542.363 1044.65 -533.319 1047.76 -525.129L1251.85 12.3584L1600.07 -215.167C1614.17 -224.375 1619.93 -242.058 1613.95 -257.715L1560.75 -396.869C1994.21 -292.983 2316.46 93.5471 2316.46 555.714C2316.46 763.662 2249.45 955.132 2138.22 1113.79L1702.16 -27.0041C1693.78 -48.9464 1666.72 -57.0488 1647.5 -43.3842L1044.32 385.662L699.206 -517.65L766.094 -739.723L638.529 -676.414C202.89 -435.641 -92 25.7165 -92 555.714C-92 572.576 -90.279 588.978 -89.595 605.665L106.579 737.745L345.139 650.831C342.094 619.483 339.976 587.872 339.976 555.714C339.976 376.859 389.025 209.937 473.4 65.736L1016.38 1486.06C788.258 1410.74 597.479 1255.15 477.184 1053.22L228.275 1143.9L183.11 1386.49C441.296 1737.05 857.319 1965.43 1328.39 1965.43C1433.88 1965.43 1536.28 1953.21 1635.22 1931.55L1834.14 1878.51L1578.68 1783.74L1195.65 781.192L1425.98 606.015C1445.08 591.485 1472.88 599.27 1481.51 621.563L1850.66 1574.45C1854.79 1585.13 1863.83 1593.19 1874.96 1596.15L2181.31 1677.67C2227.83 1642.82 2272.61 1606.28 2312.32 1569.54C2580.87 1313.49 2748.78 954.617 2748.79 555.714C2748.78 -203.188 2144.04 -820.517 1387 -851.263L1385.96 -854L1379.41 -851.602C1362.33 -852.215 1345.63 -854 1328.39 -854Z" fill="#4300A7"/>
<path d="M2079 75.1006H2090.43V99.3208H2115.92V75.1006H2127.36V135.736H2115.92V110.161H2090.43V135.736H2079V75.1006Z" fill="#F4F4F4"/>
<path d="M2157.11 92.8857C2160.33 92.8857 2163.28 93.4362 2165.96 94.5371C2168.64 95.638 2170.96 97.1624 2172.91 99.1102C2174.85 101.058 2176.38 103.387 2177.48 106.097C2178.58 108.807 2179.13 111.771 2179.13 114.989C2179.13 118.207 2178.58 121.171 2177.48 123.881C2176.38 126.591 2174.85 128.92 2172.91 130.868C2170.96 132.815 2168.64 134.34 2165.96 135.441C2163.28 136.541 2160.33 137.092 2157.11 137.092C2153.89 137.092 2150.94 136.541 2148.26 135.441C2145.58 134.34 2143.27 132.815 2141.32 130.868C2139.37 128.92 2137.85 126.591 2136.75 123.881C2135.64 121.171 2135.09 118.207 2135.09 114.989C2135.09 111.771 2135.64 108.807 2136.75 106.097C2137.85 103.387 2139.37 101.058 2141.32 99.1102C2143.27 97.1624 2145.58 95.638 2148.26 94.5371C2150.94 93.4362 2153.89 92.8857 2157.11 92.8857ZM2157.11 126.845C2158.52 126.845 2159.89 126.577 2161.22 126.04C2162.55 125.504 2163.72 124.728 2164.73 123.712C2165.75 122.695 2166.55 121.453 2167.15 119.985C2167.74 118.517 2168.04 116.852 2168.04 114.989C2168.04 113.126 2167.74 111.46 2167.15 109.992C2166.55 108.524 2165.75 107.282 2164.73 106.266C2163.72 105.25 2162.55 104.474 2161.22 103.937C2159.89 103.401 2158.52 103.133 2157.11 103.133C2155.64 103.133 2154.26 103.401 2152.96 103.937C2151.66 104.474 2150.51 105.25 2149.49 106.266C2148.47 107.282 2147.67 108.524 2147.08 109.992C2146.48 111.46 2146.19 113.126 2146.19 114.989C2146.19 116.852 2146.48 118.517 2147.08 119.985C2147.67 121.453 2148.47 122.695 2149.49 123.712C2150.51 124.728 2151.66 125.504 2152.96 126.04C2154.26 126.577 2155.64 126.845 2157.11 126.845Z" fill="#F4F4F4"/>
<path d="M2184.67 94.2408H2195.08V99.9994H2195.76C2196.27 98.9832 2196.95 98.0517 2197.79 97.2048C2198.64 96.3579 2199.59 95.6242 2200.63 95.003C2201.68 94.3817 2202.8 93.902 2204.02 93.5633C2205.23 93.2245 2206.43 93.0552 2207.62 93.0552C2209.09 93.0552 2210.34 93.1961 2211.39 93.4786C2212.43 93.7611 2213.32 94.1276 2214.05 94.5795L2211.09 104.657C2210.41 104.318 2209.66 104.051 2208.84 103.853C2208.03 103.655 2207.02 103.556 2205.84 103.556C2204.31 103.556 2202.93 103.853 2201.69 104.445C2200.45 105.038 2199.39 105.871 2198.51 106.944C2197.64 108.016 2196.96 109.273 2196.48 110.712C2196 112.152 2195.76 113.719 2195.76 115.412V135.737H2184.67V94.2408Z" fill="#F4F4F4"/>
<path d="M2224.59 88.2273C2223.63 88.2273 2222.71 88.044 2221.83 87.6768C2220.96 87.3096 2220.2 86.8015 2219.55 86.1525C2218.9 85.5034 2218.39 84.7551 2218.02 83.9083C2217.66 83.0614 2217.47 82.1299 2217.47 81.1136C2217.47 80.0974 2217.66 79.1659 2218.02 78.319C2218.39 77.4721 2218.9 76.7238 2219.55 76.0748C2220.2 75.4258 2220.96 74.9177 2221.83 74.5505C2222.71 74.1832 2223.63 74 2224.59 74C2226.56 74 2228.26 74.6914 2229.67 76.0748C2231.08 77.4583 2231.79 79.1374 2231.79 81.1136C2231.79 83.0899 2231.08 84.769 2229.67 86.1525C2228.26 87.5359 2226.56 88.2273 2224.59 88.2273ZM2219.08 135.736V94.24H2230.18V135.736H2219.08Z" fill="#F4F4F4"/>
<path d="M2237.58 126.59L2258.75 103.725H2238.25V94.2397H2272.38V103.386L2251.21 126.251H2272.72V135.736H2237.58V126.59Z" fill="#F4F4F4"/>
<path d="M2336.22 99.6606H2336.89C2338.19 97.572 2339.94 95.9206 2342.14 94.7065C2344.35 93.4924 2346.86 92.8857 2349.68 92.8857C2352.28 92.8857 2354.56 93.3092 2356.54 94.156C2358.52 95.0029 2360.14 96.2024 2361.41 97.7552C2362.68 99.308 2363.64 101.171 2364.29 103.344C2364.94 105.518 2365.26 107.931 2365.26 110.585V135.737H2354.17V111.94C2354.17 108.948 2353.51 106.732 2352.18 105.292C2350.85 103.853 2348.92 103.133 2346.38 103.133C2344.85 103.133 2343.51 103.458 2342.35 104.107C2341.2 104.756 2340.21 105.631 2339.39 106.732C2338.57 107.833 2337.95 109.132 2337.53 110.628C2337.1 112.123 2336.89 113.719 2336.89 115.412V135.737H2325.8V94.2407H2336.22V99.6606Z" fill="#F4F4F4"/>
<path d="M2377.93 138.646V78.0103H2396.47C2405.73 78.0103 2413.17 80.8049 2418.79 86.3942C2424.4 91.9835 2427.21 99.295 2427.21 108.328C2427.21 117.418 2424.4 124.743 2418.79 130.304C2413.17 135.865 2405.73 138.646 2396.47 138.646H2377.93ZM2385.72 85.4626V131.193H2396.47C2403.53 131.193 2409.09 129.175 2413.16 125.138C2417.22 121.102 2419.25 115.498 2419.25 108.328C2419.25 101.214 2417.22 95.625 2413.16 91.56C2409.09 87.4951 2403.53 85.4626 2396.47 85.4626H2385.72Z" fill="#F4F4F4"/>
<path d="M2440.46 138.645H2432.67V97.149H2440.12V103.924H2440.46C2441.25 101.722 2442.87 99.8451 2445.33 98.2922C2447.78 96.7394 2450.2 95.9634 2452.57 95.9634C2454.83 95.9634 2456.75 96.3021 2458.33 96.9796L2455.95 104.517C2455 104.122 2453.47 103.924 2451.38 103.924C2448.45 103.924 2445.89 105.109 2443.72 107.481C2441.54 109.852 2440.46 112.618 2440.46 115.78V138.645Z" fill="#F4F4F4"/>
<path d="M2457.76 117.897C2457.76 111.517 2459.77 106.239 2463.78 102.061C2467.84 97.8826 2472.95 95.7939 2479.1 95.7939C2485.26 95.7939 2490.34 97.8826 2494.35 102.061C2498.41 106.239 2500.45 111.517 2500.45 117.897C2500.45 124.333 2498.41 129.612 2494.35 133.733C2490.34 137.911 2485.26 140 2479.1 140C2472.95 140 2467.84 137.911 2463.78 133.733C2459.77 129.555 2457.76 124.277 2457.76 117.897ZM2465.55 117.897C2465.55 122.357 2466.85 125.971 2469.45 128.737C2472.05 131.503 2475.27 132.887 2479.1 132.887C2482.94 132.887 2486.16 131.503 2488.76 128.737C2491.36 125.971 2492.65 122.357 2492.65 117.897C2492.65 113.493 2491.36 109.908 2488.76 107.142C2486.11 104.319 2482.89 102.908 2479.1 102.908C2475.32 102.908 2472.1 104.319 2469.45 107.142C2466.85 109.908 2465.55 113.493 2465.55 117.897Z" fill="#F4F4F4"/>
<path d="M2516.06 82.8371C2516.06 84.3615 2515.52 85.6602 2514.45 86.7327C2513.38 87.8051 2512.08 88.3417 2510.56 88.3417C2509.03 88.3417 2507.73 87.8051 2506.66 86.7327C2505.59 85.6602 2505.05 84.3615 2505.05 82.8371C2505.05 81.3128 2505.59 80.014 2506.66 78.9416C2507.73 77.8691 2509.03 77.3325 2510.56 77.3325C2512.08 77.3325 2513.38 77.8691 2514.45 78.9416C2515.52 80.014 2516.06 81.3128 2516.06 82.8371ZM2514.45 97.1491V138.645H2506.66V97.1491H2514.45Z" fill="#F4F4F4"/>
<path d="M2542.09 132.887C2545.93 132.887 2549.06 131.503 2551.49 128.737C2554.03 125.971 2555.3 122.357 2555.3 117.897C2555.3 113.55 2554.03 109.965 2551.49 107.142C2549.01 104.319 2545.88 102.908 2542.09 102.908C2538.37 102.908 2535.23 104.319 2532.69 107.142C2530.15 109.965 2528.88 113.55 2528.88 117.897C2528.88 122.301 2530.15 125.886 2532.69 128.653C2535.23 131.476 2538.37 132.887 2542.09 132.887ZM2540.82 140.001C2535.4 140.001 2530.74 137.855 2526.85 133.564C2523.01 129.217 2521.09 123.995 2521.09 117.897C2521.09 111.8 2523.01 106.578 2526.85 102.231C2530.74 97.94 2535.4 95.7943 2540.82 95.7943C2543.87 95.7943 2546.65 96.4434 2549.16 97.7421C2551.68 99.0409 2553.61 100.762 2554.96 102.908H2555.3L2554.96 97.1493V78.0103H2562.76V138.646H2555.3V132.887H2554.96C2553.61 135.033 2551.68 136.754 2549.16 138.053C2546.65 139.352 2543.87 140.001 2540.82 140.001Z" fill="#F4F4F4"/>
<path d="M2296.11 95.9355C2294.04 96.175 2292.04 96.5561 2290.22 97.3044C2287.54 98.4053 2285.21 99.9421 2283.26 101.89C2281.31 103.838 2279.8 106.161 2278.7 108.871C2277.6 111.581 2277.06 114.55 2277.06 117.769C2277.06 120.987 2277.6 123.933 2278.7 126.643C2279.8 129.353 2281.31 131.699 2283.26 133.647C2285.21 135.595 2287.54 137.109 2290.22 138.21C2292.9 139.311 2295.85 139.853 2299.07 139.853C2302.29 139.853 2305.24 139.311 2307.92 138.21C2310.61 137.109 2312.91 135.595 2314.86 133.647C2316.81 131.699 2318.32 129.353 2319.42 126.643C2320.52 123.933 2321.09 120.987 2321.09 117.769C2321.09 114.629 2320.54 111.732 2319.49 109.077C2318.88 110.245 2318.13 111.349 2317.14 112.362C2315.11 114.442 2312.67 115.67 2309.86 116.103C2309.92 116.65 2310 117.182 2310 117.769C2310 119.632 2309.7 121.297 2309.11 122.765C2308.52 124.232 2307.71 125.467 2306.69 126.483C2305.68 127.499 2304.51 128.274 2303.18 128.811C2301.85 129.346 2300.48 129.609 2299.07 129.609C2297.6 129.609 2296.22 129.347 2294.92 128.811C2293.62 128.274 2292.47 127.499 2291.45 126.483C2290.44 125.467 2289.63 124.232 2289.03 122.765C2288.44 121.297 2288.14 119.632 2288.14 117.769C2288.14 115.905 2288.44 114.24 2289.03 112.772C2289.63 111.304 2290.44 110.047 2291.45 109.031C2292.44 108.046 2293.56 107.306 2294.81 106.772C2294.44 105.547 2294.19 104.288 2294.19 102.916C2294.19 100.288 2294.86 97.9695 2296.11 95.9355Z" fill="#F4F4F4"/>
<path d="M2306.83 117.894C2306.83 120.025 2306.09 121.852 2304.61 123.374C2303.12 124.896 2301.28 125.657 2299.07 125.657C2296.94 125.657 2295.11 124.896 2293.59 123.374C2292.07 121.852 2291.31 120.025 2291.31 117.894C2291.31 115.687 2292.07 113.841 2293.59 112.358C2295.11 110.873 2296.94 110.131 2299.07 110.131C2301.28 110.131 2303.12 110.873 2304.61 112.358C2306.09 113.841 2306.83 115.687 2306.83 117.894Z" fill="#F4F4F4"/>
<path d="M2551.55 183.612C2551.14 183.612 2550.78 183.578 2550.46 183.51C2550.14 183.449 2549.93 183.388 2549.8 183.327L2550.41 181.216C2550.99 181.365 2551.51 181.419 2551.96 181.378C2552.4 181.338 2552.8 181.138 2553.14 180.779C2553.49 180.428 2553.82 179.856 2554.11 179.064L2554.55 177.846L2548.79 162.172H2551.39L2555.69 174.597H2555.85L2560.16 162.172H2562.76L2556.14 180.038C2555.84 180.844 2555.47 181.51 2555.03 182.038C2554.59 182.573 2554.08 182.969 2553.5 183.226C2552.92 183.483 2552.27 183.612 2551.55 183.612Z" fill="#FF00D6"/>
<path d="M2536.35 162.172L2540.09 168.547L2543.83 162.172H2546.59L2541.55 169.968L2546.59 177.765H2543.83L2540.09 171.714L2536.35 177.765H2533.59L2538.55 169.968L2533.59 162.172H2536.35Z" fill="#FF00D6"/>
<path d="M2523.05 178.13C2522.06 178.13 2521.16 177.944 2520.36 177.572C2519.55 177.193 2518.91 176.648 2518.44 175.937C2517.97 175.22 2517.73 174.354 2517.73 173.339C2517.73 172.445 2517.91 171.721 2518.26 171.166C2518.61 170.605 2519.08 170.165 2519.67 169.847C2520.26 169.528 2520.91 169.292 2521.62 169.136C2522.34 168.974 2523.06 168.845 2523.78 168.75C2524.73 168.628 2525.5 168.537 2526.08 168.476C2526.68 168.408 2527.11 168.297 2527.38 168.141C2527.66 167.986 2527.8 167.715 2527.8 167.329V167.248C2527.8 166.246 2527.53 165.468 2526.98 164.913C2526.44 164.358 2525.61 164.081 2524.51 164.081C2523.37 164.081 2522.47 164.331 2521.82 164.832C2521.17 165.333 2520.71 165.867 2520.45 166.436L2518.18 165.624C2518.58 164.676 2519.12 163.939 2519.8 163.411C2520.48 162.876 2521.23 162.504 2522.03 162.294C2522.85 162.078 2523.65 161.969 2524.43 161.969C2524.93 161.969 2525.51 162.03 2526.16 162.152C2526.81 162.267 2527.45 162.507 2528.05 162.873C2528.67 163.238 2529.18 163.79 2529.59 164.527C2529.99 165.265 2530.2 166.253 2530.2 167.491V177.764H2527.8V175.653H2527.68C2527.52 175.991 2527.25 176.353 2526.87 176.739C2526.49 177.125 2525.98 177.453 2525.35 177.724C2524.72 177.995 2523.96 178.13 2523.05 178.13ZM2523.42 175.978C2524.36 175.978 2525.16 175.792 2525.81 175.42C2526.47 175.047 2526.96 174.567 2527.29 173.978C2527.63 173.389 2527.8 172.77 2527.8 172.12V169.928C2527.7 170.05 2527.48 170.161 2527.13 170.263C2526.79 170.358 2526.4 170.442 2525.95 170.517C2525.51 170.584 2525.08 170.645 2524.66 170.699C2524.25 170.747 2523.92 170.787 2523.66 170.821C2523.04 170.902 2522.45 171.034 2521.91 171.217C2521.38 171.393 2520.94 171.66 2520.61 172.019C2520.29 172.371 2520.13 172.851 2520.13 173.46C2520.13 174.293 2520.43 174.922 2521.05 175.349C2521.67 175.768 2522.46 175.978 2523.42 175.978Z" fill="#FF00D6"/>
<path d="M2514.07 156.976V177.765H2511.68V156.976H2514.07Z" fill="#FF00D6"/>
<path d="M2500.16 178.13C2499.17 178.13 2498.27 177.944 2497.47 177.572C2496.66 177.193 2496.02 176.648 2495.55 175.937C2495.08 175.22 2494.84 174.354 2494.84 173.339C2494.84 172.445 2495.02 171.721 2495.37 171.166C2495.72 170.605 2496.19 170.165 2496.78 169.847C2497.37 169.528 2498.02 169.292 2498.73 169.136C2499.45 168.974 2500.17 168.845 2500.89 168.75C2501.84 168.628 2502.61 168.537 2503.19 168.476C2503.79 168.408 2504.22 168.297 2504.49 168.141C2504.77 167.986 2504.91 167.715 2504.91 167.329V167.248C2504.91 166.246 2504.64 165.468 2504.09 164.913C2503.55 164.358 2502.72 164.081 2501.62 164.081C2500.48 164.081 2499.58 164.331 2498.93 164.832C2498.28 165.333 2497.82 165.867 2497.56 166.436L2495.29 165.624C2495.69 164.676 2496.23 163.939 2496.91 163.411C2497.59 162.876 2498.34 162.504 2499.14 162.294C2499.96 162.078 2500.75 161.969 2501.54 161.969C2502.04 161.969 2502.62 162.03 2503.27 162.152C2503.92 162.267 2504.55 162.507 2505.16 162.873C2505.78 163.238 2506.29 163.79 2506.7 164.527C2507.1 165.265 2507.31 166.253 2507.31 167.491V177.764H2504.91V175.653H2504.79C2504.63 175.991 2504.35 176.353 2503.98 176.739C2503.6 177.125 2503.09 177.453 2502.46 177.724C2501.83 177.995 2501.07 178.13 2500.16 178.13ZM2500.52 175.978C2501.47 175.978 2502.27 175.792 2502.92 175.42C2503.58 175.047 2504.07 174.567 2504.4 173.978C2504.74 173.389 2504.91 172.77 2504.91 172.12V169.928C2504.81 170.05 2504.58 170.161 2504.24 170.263C2503.9 170.358 2503.51 170.442 2503.06 170.517C2502.62 170.584 2502.19 170.645 2501.77 170.699C2501.36 170.747 2501.03 170.787 2500.77 170.821C2500.15 170.902 2499.56 171.034 2499.02 171.217C2498.49 171.393 2498.05 171.66 2497.72 172.019C2497.4 172.371 2497.24 172.851 2497.24 173.46C2497.24 174.293 2497.54 174.922 2498.16 175.349C2498.78 175.768 2499.57 175.978 2500.52 175.978Z" fill="#FF00D6"/>
<path d="M2484.44 183.936C2483.29 183.936 2482.29 183.788 2481.46 183.49C2480.63 183.199 2479.93 182.813 2479.38 182.333C2478.83 181.859 2478.39 181.351 2478.07 180.81L2479.98 179.47C2480.19 179.754 2480.47 180.079 2480.8 180.444C2481.13 180.817 2481.59 181.138 2482.16 181.409C2482.74 181.686 2483.5 181.825 2484.44 181.825C2485.7 181.825 2486.74 181.52 2487.56 180.911C2488.38 180.302 2488.79 179.348 2488.79 178.049V174.882H2488.59C2488.41 175.166 2488.16 175.518 2487.84 175.937C2487.52 176.35 2487.06 176.719 2486.45 177.044C2485.86 177.362 2485.05 177.521 2484.04 177.521C2482.78 177.521 2481.65 177.223 2480.65 176.628C2479.65 176.032 2478.86 175.166 2478.28 174.029C2477.71 172.892 2477.42 171.511 2477.42 169.887C2477.42 168.29 2477.7 166.899 2478.26 165.715C2478.82 164.524 2479.61 163.604 2480.61 162.954C2481.61 162.297 2482.77 161.969 2484.08 161.969C2485.09 161.969 2485.9 162.138 2486.5 162.477C2487.1 162.808 2487.56 163.187 2487.88 163.614C2488.2 164.033 2488.45 164.378 2488.63 164.649H2488.87V162.172H2491.18V178.211C2491.18 179.551 2490.88 180.641 2490.27 181.48C2489.67 182.326 2488.86 182.945 2487.84 183.337C2486.82 183.737 2485.69 183.936 2484.44 183.936ZM2484.36 175.369C2485.32 175.369 2486.14 175.149 2486.8 174.709C2487.46 174.269 2487.97 173.636 2488.31 172.811C2488.66 171.985 2488.83 170.997 2488.83 169.847C2488.83 168.723 2488.66 167.732 2488.32 166.872C2487.98 166.013 2487.48 165.339 2486.82 164.852C2486.16 164.365 2485.34 164.121 2484.36 164.121C2483.35 164.121 2482.5 164.378 2481.83 164.893C2481.16 165.407 2480.65 166.097 2480.31 166.964C2479.98 167.83 2479.82 168.791 2479.82 169.847C2479.82 170.929 2479.98 171.887 2480.32 172.719C2480.67 173.545 2481.18 174.195 2481.85 174.668C2482.52 175.135 2483.36 175.369 2484.36 175.369Z" fill="#FF00D6"/>
<path d="M2459.48 177.765V162.172H2461.79V164.527H2461.95C2462.24 163.756 2462.75 163.13 2463.5 162.649C2464.24 162.169 2465.08 161.929 2466.01 161.929C2466.19 161.929 2466.41 161.932 2466.67 161.939C2466.94 161.946 2467.14 161.956 2467.27 161.969V164.406C2467.19 164.385 2467 164.355 2466.71 164.314C2466.43 164.267 2466.13 164.243 2465.81 164.243C2465.05 164.243 2464.38 164.402 2463.78 164.72C2463.19 165.032 2462.72 165.465 2462.38 166.02C2462.04 166.568 2461.87 167.194 2461.87 167.898V177.765H2459.48Z" fill="#FF00D6"/>
<path d="M2452.69 171.39V162.172H2455.09V177.765H2452.69V175.125H2452.53C2452.16 175.917 2451.6 176.59 2450.82 177.145C2450.05 177.694 2449.08 177.968 2447.9 177.968C2446.93 177.968 2446.06 177.754 2445.3 177.328C2444.54 176.895 2443.95 176.245 2443.51 175.379C2443.08 174.506 2442.87 173.406 2442.87 172.08V162.172H2445.26V171.918C2445.26 173.054 2445.58 173.961 2446.22 174.638C2446.86 175.315 2447.68 175.653 2448.67 175.653C2449.27 175.653 2449.87 175.501 2450.49 175.196C2451.11 174.892 2451.63 174.425 2452.05 173.795C2452.48 173.166 2452.69 172.364 2452.69 171.39Z" fill="#FF00D6"/>
<path d="M2432.14 178.089C2430.74 178.089 2429.5 177.754 2428.44 177.084C2427.38 176.414 2426.56 175.477 2425.96 174.272C2425.37 173.068 2425.08 171.66 2425.08 170.05C2425.08 168.425 2425.37 167.008 2425.96 165.796C2426.56 164.585 2427.38 163.644 2428.44 162.974C2429.5 162.304 2430.74 161.969 2432.14 161.969C2433.55 161.969 2434.78 162.304 2435.84 162.974C2436.9 163.644 2437.73 164.585 2438.32 165.796C2438.91 167.008 2439.21 168.425 2439.21 170.05C2439.21 171.66 2438.91 173.068 2438.32 174.272C2437.73 175.477 2436.9 176.414 2435.84 177.084C2434.78 177.754 2433.55 178.089 2432.14 178.089ZM2432.14 175.937C2433.21 175.937 2434.09 175.663 2434.78 175.115C2435.47 174.567 2435.98 173.846 2436.32 172.953C2436.65 172.06 2436.81 171.092 2436.81 170.05C2436.81 169.007 2436.65 168.036 2436.32 167.136C2435.98 166.236 2435.47 165.509 2434.78 164.954C2434.09 164.399 2433.21 164.121 2432.14 164.121C2431.07 164.121 2430.19 164.399 2429.5 164.954C2428.81 165.509 2428.3 166.236 2427.97 167.136C2427.64 168.036 2427.47 169.007 2427.47 170.05C2427.47 171.092 2427.64 172.06 2427.97 172.953C2428.3 173.846 2428.81 174.567 2429.5 175.115C2430.19 175.663 2431.07 175.937 2432.14 175.937Z" fill="#FF00D6"/>
<path d="M2412 183.612C2411.59 183.612 2411.23 183.578 2410.91 183.51C2410.59 183.449 2410.37 183.388 2410.25 183.327L2410.86 181.216C2411.44 181.365 2411.96 181.419 2412.4 181.378C2412.85 181.338 2413.25 181.138 2413.59 180.779C2413.94 180.428 2414.27 179.856 2414.56 179.064L2415 177.846L2409.24 162.172H2411.84L2416.14 174.597H2416.3L2420.61 162.172H2423.21L2416.59 180.038C2416.29 180.844 2415.92 181.51 2415.48 182.038C2415.04 182.573 2414.53 182.969 2413.95 183.226C2413.37 183.483 2412.72 183.612 2412 183.612Z" fill="#FF00D6"/>
<path d="M2399.06 162.172V164.203H2390.65V162.172H2399.06ZM2393.17 177.765V160.02C2393.17 159.127 2393.38 158.383 2393.8 157.787C2394.22 157.192 2394.76 156.745 2395.43 156.447C2396.1 156.149 2396.81 156 2397.56 156C2398.14 156 2398.62 156.048 2399 156.143C2399.37 156.237 2399.65 156.325 2399.83 156.407L2399.14 158.477C2399.02 158.437 2398.85 158.386 2398.63 158.325C2398.42 158.264 2398.14 158.234 2397.8 158.234C2397.01 158.234 2396.44 158.433 2396.08 158.833C2395.74 159.232 2395.57 159.817 2395.57 160.589V177.765H2393.17Z" fill="#FF00D6"/>
<path d="M2381.39 178.089C2379.98 178.089 2378.75 177.754 2377.69 177.084C2376.63 176.414 2375.81 175.477 2375.21 174.272C2374.62 173.068 2374.33 171.66 2374.33 170.05C2374.33 168.425 2374.62 167.008 2375.21 165.796C2375.81 164.585 2376.63 163.644 2377.69 162.974C2378.75 162.304 2379.98 161.969 2381.39 161.969C2382.8 161.969 2384.03 162.304 2385.09 162.974C2386.15 163.644 2386.98 164.585 2387.56 165.796C2388.16 167.008 2388.46 168.425 2388.46 170.05C2388.46 171.66 2388.16 173.068 2387.56 174.272C2386.98 175.477 2386.15 176.414 2385.09 177.084C2384.03 177.754 2382.8 178.089 2381.39 178.089ZM2381.39 175.937C2382.46 175.937 2383.34 175.663 2384.03 175.115C2384.72 174.567 2385.23 173.846 2385.56 172.953C2385.9 172.06 2386.06 171.092 2386.06 170.05C2386.06 169.007 2385.9 168.036 2385.56 167.136C2385.23 166.236 2384.72 165.509 2384.03 164.954C2383.34 164.399 2382.46 164.121 2381.39 164.121C2380.32 164.121 2379.44 164.399 2378.75 164.954C2378.06 165.509 2377.55 166.236 2377.22 167.136C2376.89 168.036 2376.72 169.007 2376.72 170.05C2376.72 171.092 2376.89 172.06 2377.22 172.953C2377.55 173.846 2378.06 174.567 2378.75 175.115C2379.44 175.663 2380.32 175.937 2381.39 175.937Z" fill="#FF00D6"/>
<path d="M2362.63 156.976V177.765H2360.23V156.976H2362.63Z" fill="#FF00D6"/>
<path d="M2349.51 178.089C2348.1 178.089 2346.87 177.754 2345.81 177.084C2344.75 176.414 2343.93 175.477 2343.33 174.272C2342.74 173.068 2342.45 171.66 2342.45 170.05C2342.45 168.425 2342.74 167.008 2343.33 165.796C2343.93 164.585 2344.75 163.644 2345.81 162.974C2346.87 162.304 2348.1 161.969 2349.51 161.969C2350.92 161.969 2352.15 162.304 2353.21 162.974C2354.27 163.644 2355.1 164.585 2355.68 165.796C2356.28 167.008 2356.58 168.425 2356.58 170.05C2356.58 171.66 2356.28 173.068 2355.68 174.272C2355.1 175.477 2354.27 176.414 2353.21 177.084C2352.15 177.754 2350.92 178.089 2349.51 178.089ZM2349.51 175.937C2350.58 175.937 2351.46 175.663 2352.15 175.115C2352.84 174.567 2353.35 173.846 2353.68 172.953C2354.02 172.06 2354.18 171.092 2354.18 170.05C2354.18 169.007 2354.02 168.036 2353.68 167.136C2353.35 166.236 2352.84 165.509 2352.15 164.954C2351.46 164.399 2350.58 164.121 2349.51 164.121C2348.44 164.121 2347.56 164.399 2346.87 164.954C2346.18 165.509 2345.67 166.236 2345.34 167.136C2345.01 168.036 2344.84 169.007 2344.84 170.05C2344.84 171.092 2345.01 172.06 2345.34 172.953C2345.67 173.846 2346.18 174.567 2346.87 175.115C2347.56 175.663 2348.44 175.937 2349.51 175.937Z" fill="#FF00D6"/>
<path d="M2333.02 177.765V162.172H2335.33V164.527H2335.49C2335.78 163.756 2336.29 163.13 2337.04 162.649C2337.78 162.169 2338.62 161.929 2339.55 161.929C2339.73 161.929 2339.95 161.932 2340.21 161.939C2340.48 161.946 2340.68 161.956 2340.81 161.969V164.406C2340.73 164.385 2340.55 164.355 2340.25 164.314C2339.97 164.267 2339.67 164.243 2339.35 164.243C2338.59 164.243 2337.92 164.402 2337.32 164.72C2336.73 165.032 2336.26 165.465 2335.92 166.02C2335.58 166.568 2335.41 167.194 2335.41 167.898V177.765H2333.02Z" fill="#FF00D6"/>
<path d="M2329.41 162.173V164.203H2321.33V162.173H2329.41ZM2323.69 158.437H2326.08V173.298C2326.08 173.975 2326.18 174.483 2326.38 174.821C2326.58 175.153 2326.84 175.376 2327.15 175.491C2327.47 175.599 2327.8 175.653 2328.15 175.653C2328.42 175.653 2328.63 175.64 2328.8 175.613C2328.97 175.579 2329.11 175.552 2329.21 175.532L2329.7 177.684C2329.53 177.745 2329.31 177.805 2329.02 177.866C2328.73 177.934 2328.36 177.968 2327.91 177.968C2327.23 177.968 2326.57 177.822 2325.92 177.531C2325.28 177.24 2324.74 176.797 2324.32 176.202C2323.9 175.606 2323.69 174.855 2323.69 173.948V158.437Z" fill="#FF00D6"/>
<path d="M2308.31 168.385V177.764H2305.91V162.172H2308.23V164.609H2308.43C2308.79 163.817 2309.35 163.181 2310.09 162.7C2310.84 162.213 2311.8 161.969 2312.98 161.969C2314.03 161.969 2314.96 162.186 2315.75 162.619C2316.54 163.045 2317.16 163.695 2317.6 164.568C2318.04 165.434 2318.25 166.531 2318.25 167.857V177.764H2315.86V168.019C2315.86 166.794 2315.54 165.84 2314.91 165.157C2314.27 164.466 2313.4 164.121 2312.29 164.121C2311.52 164.121 2310.84 164.287 2310.24 164.619C2309.64 164.95 2309.17 165.434 2308.82 166.07C2308.48 166.706 2308.31 167.478 2308.31 168.385Z" fill="#FF00D6"/>
<path d="M2295.19 178.089C2293.78 178.089 2292.55 177.754 2291.48 177.084C2290.43 176.414 2289.6 175.477 2289.01 174.272C2288.42 173.068 2288.12 171.66 2288.12 170.05C2288.12 168.425 2288.42 167.008 2289.01 165.796C2289.6 164.585 2290.43 163.644 2291.48 162.974C2292.55 162.304 2293.78 161.969 2295.19 161.969C2296.6 161.969 2297.83 162.304 2298.88 162.974C2299.95 163.644 2300.77 164.585 2301.36 165.796C2301.96 167.008 2302.25 168.425 2302.25 170.05C2302.25 171.66 2301.96 173.068 2301.36 174.272C2300.77 175.477 2299.95 176.414 2298.88 177.084C2297.83 177.754 2296.6 178.089 2295.19 178.089ZM2295.19 175.937C2296.26 175.937 2297.14 175.663 2297.83 175.115C2298.52 174.567 2299.03 173.846 2299.36 172.953C2299.69 172.06 2299.86 171.092 2299.86 170.05C2299.86 169.007 2299.69 168.036 2299.36 167.136C2299.03 166.236 2298.52 165.509 2297.83 164.954C2297.14 164.399 2296.26 164.121 2295.19 164.121C2294.12 164.121 2293.24 164.399 2292.55 164.954C2291.86 165.509 2291.35 166.236 2291.02 167.136C2290.68 168.036 2290.52 169.007 2290.52 170.05C2290.52 171.092 2290.68 172.06 2291.02 172.953C2291.35 173.846 2291.86 174.567 2292.55 175.115C2293.24 175.663 2294.12 175.937 2295.19 175.937Z" fill="#FF00D6"/>
<path d="M2279.22 178.089C2277.76 178.089 2276.5 177.744 2275.44 177.054C2274.39 176.364 2273.58 175.413 2273.01 174.201C2272.44 172.99 2272.16 171.606 2272.16 170.05C2272.16 168.466 2272.45 167.069 2273.03 165.857C2273.62 164.639 2274.44 163.688 2275.48 163.005C2276.54 162.314 2277.77 161.969 2279.18 161.969C2280.28 161.969 2281.26 162.172 2282.14 162.578C2283.02 162.984 2283.74 163.553 2284.31 164.284C2284.87 165.015 2285.22 165.867 2285.35 166.842H2282.96C2282.77 166.131 2282.37 165.502 2281.74 164.954C2281.12 164.399 2280.28 164.121 2279.22 164.121C2278.29 164.121 2277.47 164.365 2276.76 164.852C2276.07 165.333 2275.52 166.013 2275.13 166.893C2274.74 167.766 2274.55 168.791 2274.55 169.968C2274.55 171.173 2274.74 172.222 2275.12 173.115C2275.51 174.009 2276.05 174.702 2276.74 175.196C2277.45 175.69 2278.27 175.937 2279.22 175.937C2279.84 175.937 2280.41 175.829 2280.92 175.612C2281.42 175.396 2281.85 175.085 2282.2 174.679C2282.56 174.272 2282.81 173.785 2282.96 173.217H2285.35C2285.22 174.137 2284.88 174.966 2284.35 175.704C2283.82 176.435 2283.12 177.017 2282.25 177.45C2281.38 177.876 2280.37 178.089 2279.22 178.089Z" fill="#FF00D6"/>
<path d="M2260.46 156.976V177.765H2258.06V156.976H2260.46Z" fill="#FF00D6"/>
<path d="M2253.67 156.976V177.765H2251.28V156.976H2253.67Z" fill="#FF00D6"/>
<path d="M2244.5 171.39V162.172H2246.89V177.765H2244.5V175.125H2244.33C2243.97 175.917 2243.4 176.59 2242.63 177.145C2241.86 177.694 2240.88 177.968 2239.7 177.968C2238.73 177.968 2237.86 177.754 2237.11 177.328C2236.35 176.895 2235.75 176.245 2235.32 175.379C2234.89 174.506 2234.67 173.406 2234.67 172.08V162.172H2237.07V171.918C2237.07 173.054 2237.38 173.961 2238.02 174.638C2238.66 175.315 2239.48 175.653 2240.48 175.653C2241.07 175.653 2241.68 175.501 2242.29 175.196C2242.92 174.892 2243.44 174.425 2243.86 173.795C2244.28 173.166 2244.5 172.364 2244.5 171.39Z" fill="#FF00D6"/>
<path d="M2231.31 162.172V164.203H2222.91V162.172H2231.31ZM2225.42 177.765V160.02C2225.42 159.127 2225.63 158.383 2226.05 157.787C2226.47 157.192 2227.02 156.745 2227.69 156.447C2228.36 156.149 2229.06 156 2229.81 156C2230.4 156 2230.88 156.048 2231.25 156.143C2231.62 156.237 2231.9 156.325 2232.08 156.407L2231.39 158.477C2231.27 158.437 2231.1 158.386 2230.89 158.325C2230.68 158.264 2230.4 158.234 2230.05 158.234C2229.26 158.234 2228.69 158.433 2228.34 158.833C2227.99 159.232 2227.82 159.817 2227.82 160.589V177.765H2225.42Z" fill="#FF00D6"/>
<path d="M2206.23 178.089C2204.73 178.089 2203.43 177.758 2202.34 177.095C2201.26 176.425 2200.42 175.491 2199.83 174.293C2199.25 173.088 2198.96 171.687 2198.96 170.09C2198.96 168.493 2199.25 167.085 2199.83 165.867C2200.42 164.642 2201.24 163.688 2202.29 163.005C2203.35 162.314 2204.58 161.969 2205.99 161.969C2206.8 161.969 2207.6 162.105 2208.39 162.375C2209.18 162.646 2209.9 163.086 2210.55 163.695C2211.2 164.297 2211.72 165.096 2212.11 166.091C2212.49 167.085 2212.69 168.31 2212.69 169.765V170.78H2200.67V168.71H2210.25C2210.25 167.83 2210.07 167.045 2209.72 166.355C2209.38 165.664 2208.88 165.119 2208.24 164.72C2207.6 164.321 2206.85 164.121 2205.99 164.121C2205.03 164.121 2204.21 164.358 2203.51 164.832C2202.82 165.299 2202.29 165.908 2201.91 166.659C2201.54 167.41 2201.36 168.216 2201.36 169.075V170.456C2201.36 171.633 2201.56 172.631 2201.97 173.45C2202.38 174.262 2202.95 174.882 2203.68 175.308C2204.41 175.727 2205.26 175.937 2206.23 175.937C2206.86 175.937 2207.43 175.849 2207.93 175.673C2208.45 175.491 2208.89 175.22 2209.26 174.861C2209.64 174.496 2209.92 174.042 2210.13 173.501L2212.44 174.151C2212.2 174.936 2211.79 175.626 2211.21 176.222C2210.64 176.81 2209.93 177.27 2209.08 177.602C2208.24 177.927 2207.28 178.089 2206.23 178.089Z" fill="#FF00D6"/>
<path d="M2187.02 172.081L2186.98 169.116H2187.46L2194.29 162.173H2197.25L2189.98 169.522H2189.78L2187.02 172.081ZM2184.78 177.765V156.976H2187.18V177.765H2184.78ZM2194.69 177.765L2188.6 170.05L2190.31 168.386L2197.74 177.765H2194.69Z" fill="#FF00D6"/>
<path d="M2173.27 178.13C2172.28 178.13 2171.38 177.944 2170.58 177.572C2169.77 177.193 2169.13 176.648 2168.66 175.937C2168.18 175.22 2167.95 174.354 2167.95 173.339C2167.95 172.445 2168.12 171.721 2168.47 171.166C2168.83 170.605 2169.3 170.165 2169.89 169.847C2170.47 169.528 2171.12 169.292 2171.83 169.136C2172.55 168.974 2173.27 168.845 2174 168.75C2174.94 168.628 2175.71 168.537 2176.3 168.476C2176.9 168.408 2177.33 168.297 2177.6 168.141C2177.88 167.986 2178.02 167.715 2178.02 167.329V167.248C2178.02 166.246 2177.74 165.468 2177.19 164.913C2176.65 164.358 2175.83 164.081 2174.73 164.081C2173.58 164.081 2172.69 164.331 2172.04 164.832C2171.39 165.333 2170.93 165.867 2170.67 166.436L2168.39 165.624C2168.8 164.676 2169.34 163.939 2170.02 163.411C2170.7 162.876 2171.45 162.504 2172.25 162.294C2173.06 162.078 2173.86 161.969 2174.65 161.969C2175.15 161.969 2175.72 162.03 2176.37 162.152C2177.03 162.267 2177.66 162.507 2178.27 162.873C2178.89 163.238 2179.4 163.79 2179.8 164.527C2180.21 165.265 2180.41 166.253 2180.41 167.491V177.764H2178.02V175.653H2177.89C2177.73 175.991 2177.46 176.353 2177.08 176.739C2176.7 177.125 2176.2 177.453 2175.57 177.724C2174.94 177.995 2174.17 178.13 2173.27 178.13ZM2173.63 175.978C2174.58 175.978 2175.38 175.792 2176.03 175.42C2176.68 175.047 2177.18 174.567 2177.51 173.978C2177.85 173.389 2178.02 172.77 2178.02 172.12V169.928C2177.91 170.05 2177.69 170.161 2177.35 170.263C2177.01 170.358 2176.62 170.442 2176.17 170.517C2175.73 170.584 2175.3 170.645 2174.88 170.699C2174.47 170.747 2174.13 170.787 2173.87 170.821C2173.25 170.902 2172.67 171.034 2172.13 171.217C2171.59 171.393 2171.16 171.66 2170.83 172.019C2170.5 172.371 2170.34 172.851 2170.34 173.46C2170.34 174.293 2170.65 174.922 2171.27 175.349C2171.89 175.768 2172.68 175.978 2173.63 175.978Z" fill="#FF00D6"/>
<path d="M2151.65 159.209V156.976H2167.24V159.209H2160.7V177.765H2158.18V159.209H2151.65Z" fill="#FF00D6"/>
<path d="M162.876 120.646H155.121C154.822 118.989 154.267 117.531 153.455 116.271C152.643 115.012 151.649 113.943 150.472 113.065C149.296 112.186 147.978 111.523 146.52 111.076C145.078 110.629 143.545 110.405 141.921 110.405C138.988 110.405 136.361 111.142 134.041 112.617C131.738 114.092 129.915 116.255 128.572 119.105C127.247 121.955 126.584 125.436 126.584 129.545C126.584 133.688 127.247 137.185 128.572 140.036C129.915 142.886 131.746 145.04 134.066 146.499C136.386 147.957 138.996 148.686 141.896 148.686C143.504 148.686 145.028 148.471 146.47 148.04C147.929 147.592 149.246 146.938 150.423 146.076C151.599 145.214 152.594 144.162 153.406 142.919C154.234 141.66 154.806 140.218 155.121 138.594L162.876 138.619C162.462 141.121 161.658 143.424 160.465 145.529C159.289 147.617 157.772 149.424 155.916 150.948C154.077 152.456 151.972 153.625 149.602 154.453C147.232 155.282 144.647 155.696 141.847 155.696C137.438 155.696 133.511 154.652 130.064 152.564C126.617 150.459 123.899 147.451 121.911 143.54C119.938 139.629 118.952 134.964 118.952 129.545C118.952 124.11 119.947 119.445 121.935 115.55C123.924 111.639 126.642 108.64 130.089 106.552C133.536 104.447 137.455 103.395 141.847 103.395C144.548 103.395 147.067 103.784 149.403 104.563C151.757 105.326 153.87 106.452 155.742 107.944C157.615 109.419 159.164 111.225 160.391 113.363C161.617 115.484 162.446 117.912 162.876 120.646ZM171.471 155V116.818H178.655V122.884H179.053C179.749 120.829 180.975 119.213 182.732 118.036C184.505 116.843 186.51 116.246 188.747 116.246C189.211 116.246 189.758 116.263 190.388 116.296C191.034 116.329 191.54 116.371 191.904 116.42V123.53C191.606 123.447 191.076 123.356 190.313 123.256C189.551 123.14 188.789 123.082 188.026 123.082C186.27 123.082 184.704 123.455 183.328 124.201C181.969 124.93 180.892 125.949 180.097 127.259C179.301 128.551 178.904 130.026 178.904 131.683V155H171.471ZM213.425 155.771C209.663 155.771 206.423 154.967 203.706 153.359C201.004 151.735 198.916 149.457 197.441 146.523C195.983 143.574 195.254 140.118 195.254 136.158C195.254 132.247 195.983 128.8 197.441 125.817C198.916 122.834 200.971 120.505 203.606 118.832C206.258 117.158 209.357 116.321 212.903 116.321C215.057 116.321 217.145 116.677 219.167 117.39C221.189 118.103 223.004 119.221 224.611 120.746C226.219 122.27 227.486 124.251 228.414 126.687C229.342 129.106 229.806 132.048 229.806 135.511V138.146H199.455V132.578H222.523C222.523 130.623 222.125 128.891 221.33 127.383C220.534 125.858 219.416 124.657 217.974 123.778C216.549 122.9 214.875 122.461 212.953 122.461C210.865 122.461 209.042 122.975 207.484 124.002C205.943 125.013 204.75 126.339 203.904 127.979C203.076 129.603 202.662 131.368 202.662 133.274V137.624C202.662 140.176 203.109 142.347 204.004 144.137C204.915 145.927 206.183 147.294 207.807 148.239C209.431 149.167 211.329 149.631 213.5 149.631C214.908 149.631 216.193 149.432 217.353 149.034C218.513 148.62 219.515 148.007 220.36 147.195C221.206 146.383 221.852 145.38 222.299 144.187L229.334 145.455C228.771 147.526 227.76 149.341 226.301 150.898C224.86 152.44 223.045 153.641 220.858 154.503C218.687 155.348 216.209 155.771 213.425 155.771ZM252.346 155.746C249.264 155.746 246.513 154.959 244.094 153.384C241.691 151.793 239.801 149.531 238.426 146.598C237.067 143.648 236.388 140.11 236.388 135.984C236.388 131.857 237.075 128.327 238.451 125.394C239.843 122.461 241.749 120.215 244.168 118.658C246.588 117.1 249.33 116.321 252.396 116.321C254.766 116.321 256.672 116.719 258.113 117.514C259.572 118.293 260.699 119.205 261.494 120.249C262.306 121.293 262.936 122.212 263.383 123.008H263.831V104.091H271.263V155H264.005V149.059H263.383C262.936 149.871 262.29 150.799 261.444 151.843C260.616 152.887 259.472 153.799 258.014 154.577C256.556 155.356 254.666 155.746 252.346 155.746ZM253.987 149.407C256.125 149.407 257.931 148.844 259.406 147.717C260.898 146.573 262.024 144.991 262.787 142.969C263.566 140.947 263.955 138.594 263.955 135.909C263.955 133.258 263.574 130.937 262.812 128.949C262.049 126.96 260.931 125.411 259.456 124.3C257.981 123.19 256.158 122.635 253.987 122.635C251.75 122.635 249.885 123.215 248.394 124.375C246.903 125.535 245.776 127.118 245.013 129.123C244.268 131.128 243.895 133.39 243.895 135.909C243.895 138.461 244.276 140.756 245.038 142.795C245.8 144.833 246.927 146.449 248.419 147.642C249.927 148.819 251.783 149.407 253.987 149.407ZM281.871 155V116.818H289.304V155H281.871ZM285.625 110.927C284.332 110.927 283.222 110.496 282.294 109.634C281.383 108.756 280.927 107.712 280.927 106.502C280.927 105.276 281.383 104.232 282.294 103.37C283.222 102.492 284.332 102.053 285.625 102.053C286.918 102.053 288.02 102.492 288.931 103.37C289.859 104.232 290.323 105.276 290.323 106.502C290.323 107.712 289.859 108.756 288.931 109.634C288.02 110.496 286.918 110.927 285.625 110.927ZM317.126 116.818V122.784H296.27V116.818H317.126ZM301.863 107.67H309.296V143.789C309.296 145.231 309.511 146.316 309.942 147.045C310.373 147.758 310.928 148.247 311.608 148.512C312.304 148.761 313.058 148.885 313.87 148.885C314.466 148.885 314.988 148.844 315.436 148.761C315.883 148.678 316.231 148.612 316.48 148.562L317.822 154.702C317.391 154.867 316.778 155.033 315.983 155.199C315.187 155.381 314.193 155.481 313 155.497C311.044 155.53 309.221 155.182 307.531 154.453C305.841 153.724 304.474 152.597 303.43 151.072C302.385 149.548 301.863 147.634 301.863 145.33V107.67ZM353.344 126.14L346.608 127.333C346.326 126.471 345.879 125.651 345.265 124.872C344.669 124.093 343.857 123.455 342.829 122.958C341.802 122.461 340.518 122.212 338.976 122.212C336.872 122.212 335.115 122.685 333.706 123.629C332.298 124.557 331.594 125.759 331.594 127.234C331.594 128.51 332.066 129.537 333.01 130.316C333.955 131.095 335.48 131.733 337.584 132.23L343.65 133.622C347.163 134.434 349.781 135.685 351.505 137.376C353.228 139.066 354.09 141.262 354.09 143.963C354.09 146.25 353.427 148.288 352.101 150.078C350.792 151.851 348.961 153.243 346.608 154.254C344.271 155.265 341.562 155.771 338.479 155.771C334.204 155.771 330.715 154.859 328.014 153.036C325.313 151.197 323.656 148.587 323.042 145.206L330.226 144.112C330.674 145.985 331.594 147.402 332.986 148.363C334.378 149.308 336.192 149.78 338.43 149.78C340.866 149.78 342.813 149.274 344.271 148.263C345.729 147.236 346.459 145.985 346.459 144.51C346.459 143.317 346.011 142.314 345.116 141.502C344.238 140.69 342.887 140.077 341.064 139.663L334.601 138.246C331.038 137.434 328.403 136.141 326.697 134.368C325.006 132.595 324.161 130.349 324.161 127.631C324.161 125.378 324.791 123.406 326.05 121.715C327.31 120.025 329.05 118.707 331.27 117.763C333.491 116.802 336.035 116.321 338.902 116.321C343.028 116.321 346.276 117.216 348.646 119.006C351.016 120.779 352.582 123.157 353.344 126.14Z" fill="white"/>
</g>
<defs>
<clipPath id="clip0_65_61">
<rect width="2660" height="258" rx="30" fill="white"/>
</clipPath>
</defs>
</svg>
