<svg xmlns="http://www.w3.org/2000/svg" fill="none" viewBox="0 0 2660 1103">
  <g clip-path="url(#a)">
    <rect width="2660" height="1103" fill="#4804AD" rx="30"/>
    <path fill="#4300A7" d="M1328.39-414c-56.79 0-112.62 4.248-167.55 10.949l-113.01 292.52a35.534 35.534 0 0 0-.07 25.402l204.09 537.487 348.22-227.525c14.1-9.208 19.86-26.891 13.88-42.548l-53.2-139.154c433.46 103.886 755.71 490.416 755.71 952.583 0 207.946-67.01 399.416-178.24 558.076L1702.16 412.996c-8.38-21.942-35.44-30.045-54.66-16.38l-603.18 429.046L699.206-77.65l66.888-222.073-127.565 63.309C202.89 4.359-92 465.717-92 995.714c0 16.866 1.721 33.266 2.405 49.946l196.174 132.09 238.56-86.92c-3.045-31.35-5.163-62.96-5.163-95.116 0-178.855 49.049-345.776 133.424-489.978l542.98 1420.324c-228.122-75.32-418.901-230.91-539.196-432.85l-248.909 90.69-45.165 242.59c258.186 350.56 674.209 578.94 1145.28 578.94 105.49 0 207.89-12.22 306.83-33.88l198.92-53.04-255.46-94.77-383.03-1002.55 230.33-175.17c19.1-14.53 46.9-6.75 55.53 15.54l369.15 952.89c4.13 10.68 13.17 18.74 24.3 21.7l306.35 81.52c46.52-34.85 91.3-71.39 131.01-108.13 268.55-256.05 436.46-614.92 436.47-1013.826-.01-758.902-604.75-1376.231-1361.79-1406.977l-1.04-2.737-6.55 2.398c-17.08-.613-33.78-2.398-51.02-2.398Z"/>
    <path fill="#F4F4F4" d="M1256.1 973.949v7.453h-2.37V963h6.28c1.59 0 2.94.531 4.06 1.594 1.13 1.062 1.69 2.355 1.69 3.88 0 1.56-.56 2.862-1.69 3.907-1.1 1.045-2.45 1.568-4.06 1.568h-3.91Zm0-8.687v6.426h3.96c.94 0 1.72-.318 2.34-.952.63-.634.95-1.388.95-2.262 0-.856-.32-1.601-.95-2.235-.62-.652-1.4-.977-2.34-.977h-3.96Zm10.1 9.843c0-1.935.61-3.537 1.82-4.806 1.24-1.267 2.79-1.901 4.65-1.901 1.87 0 3.42.634 4.63 1.901 1.24 1.269 1.85 2.871 1.85 4.806 0 1.954-.61 3.557-1.85 4.807-1.21 1.267-2.76 1.902-4.63 1.902-1.86 0-3.41-.635-4.65-1.902-1.21-1.268-1.82-2.87-1.82-4.807Zm2.36 0c0 1.354.4 2.451 1.19 3.29.78.84 1.76 1.26 2.92 1.26 1.17 0 2.15-.42 2.94-1.26.78-.839 1.18-1.936 1.18-3.29 0-1.336-.4-2.424-1.18-3.264-.81-.856-1.79-1.284-2.94-1.284-1.14 0-2.12.428-2.92 1.284-.79.84-1.19 1.928-1.19 3.264Zm30.33-6.297-4.06 12.594h-2.42l-3.13-9.664-3.11 9.664h-2.39l-4.06-12.594h2.46l2.81 9.51h.02l3.11-9.51h2.44l3.11 9.51h.03l2.77-9.51h2.42Zm6.94 13.006c-1.85 0-3.38-.635-4.57-1.902-1.2-1.268-1.8-2.87-1.8-4.807 0-1.919.58-3.516 1.74-4.793 1.17-1.276 2.66-1.914 4.48-1.914 1.86 0 3.35.603 4.45 1.811 1.11 1.209 1.66 2.901 1.66 5.077l-.02.256h-9.9c.04 1.235.45 2.228 1.24 2.982.78.754 1.73 1.131 2.82 1.131 1.51 0 2.69-.754 3.55-2.262l2.11 1.029c-.57 1.062-1.35 1.892-2.35 2.492-1.01.6-2.14.9-3.41.9Zm-3.78-8.225h7.22c-.07-.874-.42-1.598-1.06-2.171-.64-.574-1.51-.861-2.59-.861-.89 0-1.65.273-2.3.822-.64.549-1.06 1.285-1.27 2.21Zm14.27 7.814h-2.37v-12.595h2.26v2.057h.11c.24-.669.73-1.238 1.47-1.709.75-.471 1.48-.707 2.2-.707.69 0 1.27.103 1.75.308l-.72 2.288c-.29-.121-.75-.18-1.39-.18-.89 0-1.66.36-2.32 1.079-.66.72-.99 1.56-.99 2.519v6.94Zm11.84.411c-1.85 0-3.37-.635-4.57-1.902-1.2-1.268-1.8-2.87-1.8-4.807 0-1.919.58-3.516 1.75-4.793 1.16-1.276 2.65-1.914 4.47-1.914 1.87 0 3.35.603 4.46 1.811 1.1 1.209 1.66 2.901 1.66 5.077l-.03.256h-9.89c.03 1.235.44 2.228 1.23 2.982s1.73 1.131 2.83 1.131c1.5 0 2.69-.754 3.54-2.262l2.11 1.029a6.258 6.258 0 0 1-2.35 2.492c-1 .6-2.14.9-3.41.9Zm-3.77-8.225h7.22a3.151 3.151 0 0 0-1.07-2.171c-.64-.574-1.5-.861-2.58-.861-.89 0-1.66.273-2.3.822-.64.549-1.07 1.285-1.27 2.21Zm17.68 6.065c1.16 0 2.11-.419 2.85-1.259.77-.839 1.16-1.937 1.16-3.29 0-1.319-.39-2.407-1.16-3.264-.75-.857-1.7-1.285-2.85-1.285-1.13 0-2.08.428-2.85 1.285-.78.857-1.16 1.945-1.16 3.264 0 1.337.38 2.425 1.16 3.265.77.856 1.72 1.284 2.85 1.284Zm-.39 2.159c-1.64 0-3.06-.651-4.24-1.953-1.16-1.32-1.75-2.904-1.75-4.755 0-1.85.59-3.435 1.75-4.755 1.18-1.302 2.6-1.953 4.24-1.953.93 0 1.77.198 2.53.592.77.393 1.35.917 1.76 1.567h.11l-.11-1.748V963h2.37v18.402h-2.26v-1.748h-.11c-.41.651-.99 1.174-1.76 1.568-.76.394-1.6.591-2.53.591Zm21.85 0c-.93 0-1.77-.197-2.53-.591-.77-.394-1.35-.917-1.76-1.568h-.11v1.748h-2.26V963h2.37v5.808l-.11 1.748h.11c.41-.65.99-1.174 1.76-1.567.76-.394 1.6-.592 2.53-.592 1.66 0 3.07.651 4.21 1.953 1.19 1.32 1.78 2.905 1.78 4.755 0 1.868-.59 3.453-1.78 4.755-1.14 1.302-2.55 1.953-4.21 1.953Zm-.39-2.159c1.13 0 2.08-.428 2.86-1.284.77-.84 1.15-1.928 1.15-3.265 0-1.319-.38-2.407-1.15-3.264-.78-.857-1.73-1.285-2.86-1.285-1.14 0-2.1.428-2.87 1.285-.76.857-1.14 1.945-1.14 3.264 0 1.337.38 2.433 1.14 3.29.77.84 1.73 1.259 2.87 1.259Zm19.28-10.846-7.89 18.145h-2.44l2.93-6.348-5.19-11.797h2.57l3.75 9.047h.05l3.65-9.047h2.57Zm-114.57 31.043-5.63 15.529h11.45l-5.63-15.529h-.19Zm-10.48 28.999h-4.91l12.98-34.434h5l12.99 34.434h-4.91l-3.32-9.33h-14.47l-3.36 9.33Zm29.33-23.56h4.23v3.26h.19c.67-1.15 1.71-2.11 3.1-2.88 1.4-.77 2.85-1.15 4.35-1.15 2.89 0 5.11.82 6.66 2.47 1.56 1.65 2.34 4 2.34 7.05v14.81h-4.43v-14.52c-.09-3.85-2.03-5.78-5.82-5.78-1.76 0-3.23.72-4.42 2.14-1.19 1.43-1.78 3.14-1.78 5.13v13.03h-4.42v-23.56Zm36.64 20.29c2.18 0 3.96-.79 5.34-2.36 1.44-1.57 2.16-3.62 2.16-6.16 0-2.46-.72-4.5-2.16-6.1-1.41-1.6-3.19-2.41-5.34-2.41-2.12 0-3.9.81-5.34 2.41s-2.16 3.64-2.16 6.1c0 2.51.72 4.54 2.16 6.11 1.44 1.6 3.22 2.41 5.34 2.41Zm-.72 4.04c-3.08 0-5.72-1.22-7.94-3.66-2.18-2.47-3.27-5.43-3.27-8.9 0-3.46 1.09-6.42 3.27-8.89 2.22-2.44 4.86-3.66 7.94-3.66 1.73 0 3.31.37 4.73 1.11 1.43.74 2.53 1.72 3.3 2.93h.19l-.19-3.27v-10.864h4.42v34.434h-4.23v-3.27h-.19c-.77 1.21-1.87 2.19-3.3 2.93-1.42.74-3 1.11-4.73 1.11Zm22.26-.77h-4.42v-23.57h4.23v3.85h.19c.45-1.25 1.37-2.32 2.77-3.2 1.39-.88 2.76-1.32 4.11-1.32 1.28 0 2.37.19 3.27.58l-1.35 4.28c-.54-.23-1.41-.34-2.59-.34-1.67 0-3.12.67-4.36 2.02-1.23 1.35-1.85 2.92-1.85 4.71v12.99Zm10.24-11.78c0-3.63 1.14-6.62 3.42-9 2.31-2.37 5.21-3.55 8.7-3.55 3.5 0 6.38 1.18 8.66 3.55 2.31 2.38 3.46 5.37 3.46 9 0 3.65-1.15 6.65-3.46 8.99-2.28 2.37-5.16 3.56-8.66 3.56-3.49 0-6.39-1.19-8.7-3.56-2.28-2.37-3.42-5.37-3.42-8.99Zm4.43 0c0 2.53.74 4.58 2.21 6.15 1.47 1.57 3.3 2.36 5.48 2.36 2.18 0 4.01-.79 5.48-2.36 1.48-1.57 2.22-3.62 2.22-6.15 0-2.5-.74-4.54-2.22-6.11-1.5-1.6-3.33-2.41-5.48-2.41-2.15 0-3.97.81-5.48 2.41-1.47 1.57-2.21 3.61-2.21 6.11Zm29.09-19.912c0 .865-.31 1.602-.91 2.211-.61.61-1.35.911-2.22.911-.86 0-1.6-.301-2.21-.911-.61-.609-.91-1.346-.91-2.211 0-.866.3-1.604.91-2.213a3.019 3.019 0 0 1 2.21-.913c.87 0 1.61.304 2.22.913.6.609.91 1.347.91 2.213Zm-.91 8.122v23.57h-4.43v-23.57h4.43Zm16.1 20.3c2.18 0 3.96-.79 5.34-2.36 1.44-1.57 2.17-3.62 2.17-6.16 0-2.46-.73-4.5-2.17-6.1-1.41-1.6-3.19-2.41-5.34-2.41-2.11 0-3.89.81-5.33 2.41-1.45 1.6-2.17 3.64-2.17 6.1 0 2.51.72 4.54 2.17 6.11 1.44 1.6 3.22 2.41 5.33 2.41Zm-.72 4.04c-3.07 0-5.72-1.22-7.93-3.66-2.18-2.47-3.27-5.43-3.27-8.9 0-3.46 1.09-6.42 3.27-8.89 2.21-2.44 4.86-3.66 7.93-3.66 1.73 0 3.31.37 4.74 1.11 1.43.74 2.52 1.72 3.29 2.93h.2l-.2-3.27v-10.864h4.43v34.434h-4.23v-3.27h-.2c-.77 1.21-1.86 2.19-3.29 2.93-1.43.74-3.01 1.11-4.74 1.11ZM967 519.652h17.152v36.336h38.238v-36.336h17.15v90.967h-17.15V572.25h-38.238v38.369H967v-90.967Zm117.19 26.681c4.82 0 9.25.826 13.27 2.477 4.03 1.652 7.5 3.939 10.42 6.861 2.92 2.922 5.21 6.416 6.86 10.482 1.65 4.065 2.48 8.512 2.48 13.34 0 4.828-.83 9.274-2.48 13.34-1.65 4.065-3.94 7.559-6.86 10.481-2.92 2.923-6.39 5.209-10.42 6.861-4.02 1.652-8.45 2.478-13.27 2.478-4.83 0-9.26-.826-13.28-2.478-4.02-1.652-7.5-3.938-10.42-6.861-2.92-2.922-5.21-6.416-6.86-10.481-1.65-4.066-2.48-8.512-2.48-13.34 0-4.828.83-9.275 2.48-13.34 1.65-4.066 3.94-7.56 6.86-10.482 2.92-2.922 6.4-5.209 10.42-6.861 4.02-1.651 8.45-2.477 13.28-2.477Zm0 50.947c2.11 0 4.17-.402 6.16-1.207 1.99-.805 3.75-1.97 5.27-3.494 1.53-1.525 2.73-3.388 3.62-5.59.89-2.203 1.34-4.701 1.34-7.496 0-2.795-.45-5.294-1.34-7.496-.89-2.203-2.09-4.066-3.62-5.59a15.661 15.661 0 0 0-5.27-3.494 16.306 16.306 0 0 0-6.16-1.207c-2.2 0-4.28.402-6.23 1.207-1.95.805-3.68 1.969-5.21 3.494-1.52 1.524-2.73 3.387-3.62 5.59-.89 2.202-1.33 4.701-1.33 7.496 0 2.795.44 5.293 1.33 7.496.89 2.202 2.1 4.065 3.62 5.59 1.53 1.524 3.26 2.689 5.21 3.494 1.95.805 4.03 1.207 6.23 1.207Zm41.34-48.914h15.62v8.639h1.02c.76-1.525 1.78-2.922 3.05-4.193a21.793 21.793 0 0 1 4.25-3.303 20.975 20.975 0 0 1 5.09-2.16c1.82-.508 3.62-.762 5.4-.762 2.2 0 4.08.211 5.65.635 1.57.424 2.9.974 4 1.652l-4.44 15.119a15.782 15.782 0 0 0-3.37-1.207c-1.23-.297-2.73-.445-4.51-.445-2.29 0-4.36.445-6.23 1.334a13.675 13.675 0 0 0-4.76 3.748c-1.31 1.609-2.33 3.494-3.05 5.654-.72 2.159-1.08 4.51-1.08 7.051v30.492h-16.64v-62.254Zm59.89-9.022c-1.44 0-2.82-.275-4.13-.826a10.488 10.488 0 0 1-3.43-2.286 10.685 10.685 0 0 1-2.29-3.367c-.55-1.271-.83-2.668-.83-4.193 0-1.524.28-2.922.83-4.192a10.663 10.663 0 0 1 2.29-3.367c.97-.974 2.11-1.736 3.43-2.287 1.31-.551 2.69-.826 4.13-.826 2.96 0 5.5 1.037 7.62 3.113 2.12 2.075 3.17 4.594 3.17 7.559s-1.05 5.484-3.17 7.56c-2.12 2.075-4.66 3.112-7.62 3.112Zm-8.26 71.275v-62.254h16.64v62.254h-16.64Zm27.74-13.722 31.76-34.303h-30.74v-14.23h51.2v13.722l-31.76 34.303h32.27v14.229h-52.73v-13.721Zm147.98-40.4h1.02c1.95-3.134 4.57-5.611 7.88-7.432 3.3-1.822 7.07-2.732 11.3-2.732 3.9 0 7.33.635 10.29 1.906 2.97 1.27 5.4 3.07 7.31 5.399 1.91 2.33 3.35 5.125 4.32 8.386.97 3.26 1.46 6.881 1.46 10.862v37.734h-16.64v-35.701c0-4.489-1-7.814-2.99-9.973-1.99-2.16-4.89-3.24-8.7-3.24-2.29 0-4.3.487-6.04 1.461-1.73.974-3.21 2.287-4.44 3.938-1.23 1.652-2.16 3.601-2.8 5.845-.63 2.244-.95 4.637-.95 7.178v30.492h-16.64v-62.254h15.62v8.131Zm62.58 58.487v-90.967h27.82c13.89 0 25.05 4.192 33.48 12.577 8.43 8.386 12.64 19.355 12.64 32.906 0 13.637-4.21 24.627-12.64 32.969-8.43 8.343-19.59 12.515-33.48 12.515h-27.82Zm11.69-79.787v68.606h16.13c10.59 0 18.93-3.028 25.03-9.084 6.1-6.055 9.15-14.462 9.15-25.219 0-10.672-3.05-19.057-9.15-25.156-6.1-6.098-14.44-9.147-25.03-9.147h-16.13Zm82.12 79.786h-11.69v-62.254h11.18v10.164h.51c1.19-3.303 3.62-6.119 7.31-8.449 3.68-2.33 7.3-3.494 10.86-3.494 3.39 0 6.27.508 8.64 1.525l-3.56 11.307c-1.44-.592-3.73-.889-6.86-.889-4.4 0-8.24 1.778-11.5 5.336-3.26 3.557-4.89 7.707-4.89 12.451v34.303Zm25.97-31.127c0-9.572 3-17.49 9.02-23.759 6.09-6.268 13.76-9.401 22.99-9.401 9.24 0 16.86 3.133 22.87 9.401 6.1 6.269 9.15 14.187 9.15 23.759 0 9.655-3.05 17.575-9.15 23.758-6.01 6.268-13.63 9.401-22.87 9.401-9.23 0-16.9-3.133-22.99-9.401-6.02-6.268-9.02-14.187-9.02-23.758Zm11.68 0c0 6.69 1.95 12.112 5.85 16.262 3.9 4.15 8.72 6.225 14.48 6.225s10.59-2.075 14.49-6.225c3.89-4.15 5.84-9.572 5.84-16.262 0-6.607-1.95-11.986-5.84-16.136-3.98-4.235-8.81-6.352-14.49-6.352-5.67 0-10.5 2.117-14.48 6.352-3.9 4.15-5.85 9.529-5.85 16.136Zm75.78-52.598c0 2.287-.81 4.236-2.42 5.844-1.61 1.609-3.56 2.414-5.84 2.414-2.29 0-4.24-.805-5.85-2.414-1.61-1.608-2.41-3.557-2.41-5.844 0-2.287.8-4.235 2.41-5.844s3.56-2.414 5.85-2.414c2.28 0 4.23.805 5.84 2.414 1.61 1.609 2.42 3.557 2.42 5.844Zm-2.42 21.471v62.254h-11.69v-62.254h11.69Zm41.47 53.615c5.76 0 10.46-2.075 14.1-6.225 3.81-4.15 5.72-9.572 5.72-16.262 0-6.523-1.91-11.9-5.72-16.136-3.73-4.235-8.43-6.352-14.1-6.352-5.59 0-10.3 2.117-14.11 6.352-3.81 4.236-5.71 9.613-5.71 16.136 0 6.606 1.9 11.985 5.71 16.135 3.81 4.235 8.52 6.352 14.11 6.352Zm-1.91 10.672c-8.13 0-15.12-3.219-20.96-9.655-5.76-6.523-8.64-14.357-8.64-23.504 0-9.148 2.88-16.982 8.64-23.504 5.84-6.437 12.83-9.656 20.96-9.656 4.57 0 8.75.974 12.51 2.922 3.77 1.948 6.67 4.531 8.71 7.75h.51l-.51-8.639v-28.713h11.69v90.967h-11.18v-8.64h-.51c-2.04 3.219-4.94 5.802-8.71 7.75-3.76 1.949-7.94 2.922-12.51 2.922Zm-367.13-66.107c-3.11.359-6.1.931-8.83 2.053-4.02 1.652-7.52 3.957-10.44 6.88-2.92 2.922-5.19 6.407-6.84 10.472-1.66 4.066-2.47 8.521-2.47 13.349 0 4.828.81 9.248 2.47 13.314 1.65 4.066 3.92 7.586 6.84 10.508 2.92 2.922 6.42 5.194 10.44 6.845 4.02 1.652 8.45 2.464 13.28 2.464s9.26-.812 13.28-2.464c4.02-1.651 7.48-3.923 10.4-6.845 2.93-2.922 5.2-6.442 6.85-10.508 1.65-4.066 2.5-8.486 2.5-13.314 0-4.709-.83-9.056-2.4-13.04-.91 1.753-2.04 3.41-3.52 4.929-3.05 3.12-6.71 4.962-10.92 5.613.09.82.2 1.619.2 2.498 0 2.795-.44 5.294-1.33 7.496-.89 2.202-2.11 4.054-3.63 5.578a15.656 15.656 0 0 1-5.27 3.492 16.278 16.278 0 0 1-6.16 1.198c-2.2 0-4.28-.393-6.23-1.198a15.773 15.773 0 0 1-5.2-3.492c-1.53-1.524-2.74-3.376-3.63-5.578-.89-2.202-1.34-4.701-1.34-7.496 0-2.795.45-5.293 1.34-7.496.89-2.202 2.1-4.088 3.63-5.613 1.47-1.476 3.16-2.587 5.03-3.389-.55-1.837-.93-3.726-.93-5.784 0-3.942 1-7.421 2.88-10.472Z"/>
    <path fill="#F4F4F4" d="M1308.8 583.851c0 3.197-1.11 5.938-3.33 8.221-2.23 2.284-5 3.425-8.31 3.425-3.2 0-5.94-1.141-8.22-3.425-2.29-2.283-3.43-5.024-3.43-8.221 0-3.312 1.14-6.08 3.43-8.306 2.28-2.227 5.02-3.34 8.22-3.34 3.31 0 6.08 1.113 8.31 3.34 2.22 2.226 3.33 4.994 3.33 8.306Z"/>
    <path fill="#FF00D6" d="M999.095 673.155v-3.593h25.095v3.593h-10.52v29.861h-4.06v-29.861h-10.515Zm34.785 30.449c-1.59 0-3.03-.299-4.32-.898-1.3-.61-2.33-1.487-3.09-2.63-.76-1.155-1.15-2.549-1.15-4.182 0-1.438.29-2.603.85-3.496a6.067 6.067 0 0 1 2.27-2.123c.95-.512 2-.893 3.14-1.144 1.16-.261 2.32-.468 3.48-.621 1.53-.196 2.76-.343 3.71-.441.96-.109 1.65-.288 2.09-.539.45-.25.67-.686.67-1.307v-.13c0-1.612-.44-2.864-1.32-3.757-.87-.893-2.2-1.34-3.97-1.34-1.84 0-3.29.403-4.33 1.209-1.05.806-1.78 1.666-2.21 2.581l-3.66-1.307c.66-1.524 1.53-2.711 2.62-3.561 1.1-.86 2.3-1.459 3.59-1.797 1.31-.348 2.59-.523 3.86-.523.8 0 1.73.099 2.77.295 1.06.185 2.08.571 3.06 1.159.99.588 1.81 1.476 2.46 2.663.66 1.187.98 2.777.98 4.77v16.531h-3.85v-3.398h-.2c-.26.545-.69 1.128-1.3 1.748-.61.621-1.42 1.149-2.44 1.585-1.01.435-2.25.653-3.71.653Zm.59-3.463c1.53 0 2.81-.299 3.86-.898 1.05-.599 1.85-1.372 2.38-2.32a5.86 5.86 0 0 0 .82-2.989v-3.529c-.16.196-.52.376-1.08.539-.54.153-1.17.289-1.89.409-.71.109-1.4.207-2.08.294-.66.076-1.2.141-1.62.196-1 .13-1.93.343-2.8.637-.87.283-1.56.713-2.1 1.29-.52.567-.78 1.34-.78 2.32 0 1.339.5 2.352 1.49 3.038 1 .676 2.27 1.013 3.8 1.013Zm21.54-6.273-.06-4.77h.78l10.98-11.173h4.77l-11.7 11.827h-.32l-4.45 4.116Zm-3.59 9.148v-33.454h3.86v33.454h-3.86Zm15.94 0-9.8-12.415 2.75-2.679 11.95 15.094h-4.9Zm18.57.523c-2.42 0-4.5-.534-6.26-1.601-1.74-1.078-3.08-2.581-4.03-4.509-.94-1.938-1.41-4.192-1.41-6.762 0-2.57.47-4.836 1.41-6.796.95-1.971 2.26-3.506 3.95-4.606 1.7-1.111 3.68-1.667 5.95-1.667 1.3 0 2.59.218 3.87.654 1.27.436 2.43 1.143 3.48 2.123 1.04.97 1.88 2.255 2.5 3.856.62 1.6.93 3.572.93 5.913v1.633h-19.34v-3.332h15.42c0-1.416-.29-2.679-.85-3.79-.56-1.11-1.35-1.987-2.39-2.63-1.02-.642-2.23-.963-3.62-.963-1.54 0-2.87.381-3.99 1.143a7.527 7.527 0 0 0-2.56 2.94 8.627 8.627 0 0 0-.9 3.888v2.222c0 1.895.32 3.501.98 4.819.66 1.306 1.58 2.303 2.76 2.989 1.18.675 2.54 1.013 4.1 1.013 1.01 0 1.93-.142 2.74-.425.83-.294 1.54-.73 2.14-1.307a5.836 5.836 0 0 0 1.39-2.189l3.73 1.046a8.304 8.304 0 0 1-1.98 3.332c-.93.948-2.07 1.688-3.43 2.222-1.36.522-2.89.784-4.59.784Zm40.36-25.614v3.267h-13.52v-3.267h13.52Zm-9.47 25.091v-28.554c0-1.437.34-2.635 1.01-3.594a6.295 6.295 0 0 1 2.63-2.156 8.343 8.343 0 0 1 3.42-.719c.94 0 1.72.077 2.32.229.59.153 1.04.294 1.33.425l-1.11 3.332c-.19-.065-.46-.147-.81-.245-.34-.098-.79-.147-1.34-.147-1.28 0-2.2.321-2.76.964-.56.642-.84 1.584-.84 2.826v27.639h-3.85Zm30.69-10.258v-14.833h3.85v25.091h-3.85v-4.247h-.26c-.59 1.274-1.51 2.358-2.75 3.251-1.24.882-2.81 1.323-4.7 1.323-1.57 0-2.96-.343-4.18-1.029-1.22-.697-2.18-1.743-2.88-3.137-.7-1.404-1.04-3.174-1.04-5.309v-15.943h3.85v15.682c0 1.83.51 3.289 1.54 4.378s2.35 1.633 3.95 1.633c.96 0 1.93-.245 2.92-.735 1.01-.49 1.84-1.241 2.52-2.254.69-1.013 1.03-2.303 1.03-3.871Zm14.77-23.196v33.454h-3.86v-33.454h3.86Zm10.92 0v33.454h-3.86v-33.454h3.86Zm30.19 33.977c-2.35 0-4.38-.556-6.08-1.666-1.7-1.111-3-2.641-3.92-4.591-.91-1.949-1.37-4.176-1.37-6.681 0-2.548.47-4.797 1.4-6.746.95-1.96 2.27-3.49 3.96-4.59 1.7-1.111 3.68-1.667 5.94-1.667 1.77 0 3.36.327 4.77.981 1.42.653 2.58 1.568 3.48 2.744.91 1.176 1.47 2.548 1.68 4.116h-3.85c-.3-1.143-.95-2.156-1.96-3.038-1-.893-2.35-1.339-4.05-1.339-1.51 0-2.82.392-3.96 1.176-1.12.773-1.99 1.867-2.63 3.283-.62 1.405-.93 3.055-.93 4.95 0 1.938.31 3.626.92 5.064.62 1.437 1.49 2.553 2.61 3.348 1.13.795 2.46 1.193 3.99 1.193 1 0 1.91-.174 2.73-.523.81-.348 1.5-.849 2.07-1.503.57-.653.97-1.437 1.21-2.352h3.85a8.836 8.836 0 0 1-1.61 4.002c-.85 1.176-1.98 2.113-3.38 2.81-1.4.686-3.02 1.029-4.87 1.029Zm25.69 0c-2.26 0-4.25-.539-5.96-1.617-1.7-1.078-3.03-2.587-3.99-4.525-.94-1.939-1.42-4.204-1.42-6.796 0-2.613.48-4.895 1.42-6.844.96-1.949 2.29-3.463 3.99-4.541 1.71-1.078 3.7-1.618 5.96-1.618 2.27 0 4.25.54 5.95 1.618 1.71 1.078 3.04 2.592 3.98 4.541.96 1.949 1.44 4.231 1.44 6.844 0 2.592-.48 4.857-1.44 6.796-.94 1.938-2.27 3.447-3.98 4.525-1.7 1.078-3.68 1.617-5.95 1.617Zm0-3.463c1.72 0 3.14-.441 4.25-1.323 1.11-.882 1.93-2.042 2.47-3.48.53-1.437.8-2.995.8-4.672 0-1.677-.27-3.239-.8-4.688-.54-1.448-1.36-2.619-2.47-3.512-1.11-.893-2.53-1.339-4.25-1.339-1.72 0-3.13.446-4.24 1.339-1.12.893-1.94 2.064-2.47 3.512-.53 1.449-.8 3.011-.8 4.688 0 1.677.27 3.235.8 4.672.53 1.438 1.35 2.598 2.47 3.48 1.11.882 2.52 1.323 4.24 1.323Zm21.11-12.154v15.094h-3.85v-25.091h3.72v3.921h.33a7.166 7.166 0 0 1 2.68-3.071c1.2-.784 2.74-1.177 4.64-1.177 1.7 0 3.18.349 4.46 1.046 1.27.686 2.26 1.731 2.97 3.136.71 1.394 1.06 3.158 1.06 5.293v15.943h-3.85v-15.682c0-1.971-.52-3.506-1.54-4.606-1.02-1.111-2.43-1.666-4.21-1.666-1.24 0-2.33.266-3.3.8-.96.534-1.72 1.312-2.27 2.336-.56 1.024-.84 2.265-.84 3.724Zm33.97-9.997v3.267h-13.01v-3.267h13.01Zm-9.22-6.011h3.86v23.915c0 1.089.16 1.905.47 2.45.33.534.74.893 1.24 1.078.52.174 1.06.261 1.62.261.43 0 .77-.021 1.05-.065l.65-.131.78 3.463c-.26.098-.62.196-1.09.294-.47.109-1.06.164-1.78.164a7.72 7.72 0 0 1-3.2-.703 6.276 6.276 0 0 1-2.58-2.14c-.68-.958-1.02-2.167-1.02-3.626v-24.96Zm15.02 31.102v-25.091h3.72v3.79h.26c.46-1.242 1.29-2.249 2.48-3.022 1.2-.773 2.55-1.16 4.06-1.16.28 0 .63.006 1.06.016.42.011.74.028.96.049v3.921c-.13-.033-.43-.082-.9-.147a8.772 8.772 0 0 0-1.45-.114c-1.22 0-2.31.256-3.27.767a5.726 5.726 0 0 0-2.25 2.091c-.55.882-.82 1.89-.82 3.022v15.878h-3.85Zm26.54.523c-2.26 0-4.25-.539-5.96-1.617-1.7-1.078-3.03-2.587-3.99-4.525-.94-1.939-1.42-4.204-1.42-6.796 0-2.613.48-4.895 1.42-6.844.96-1.949 2.29-3.463 3.99-4.541 1.71-1.078 3.7-1.618 5.96-1.618 2.27 0 4.25.54 5.95 1.618 1.71 1.078 3.04 2.592 3.98 4.541.96 1.949 1.44 4.231 1.44 6.844 0 2.592-.48 4.857-1.44 6.796-.94 1.938-2.27 3.447-3.98 4.525-1.7 1.078-3.68 1.617-5.95 1.617Zm0-3.463c1.72 0 3.14-.441 4.25-1.323 1.11-.882 1.93-2.042 2.46-3.48.54-1.437.81-2.995.81-4.672 0-1.677-.27-3.239-.81-4.688-.53-1.448-1.35-2.619-2.46-3.512-1.11-.893-2.53-1.339-4.25-1.339-1.72 0-3.14.446-4.25 1.339-1.11.893-1.93 2.064-2.46 3.512-.54 1.449-.8 3.011-.8 4.688 0 1.677.26 3.235.8 4.672.53 1.438 1.35 2.598 2.46 3.48 1.11.882 2.53 1.323 4.25 1.323Zm21.11-30.514v33.454h-3.86v-33.454h3.86Zm30.19 33.977c-2.26 0-4.25-.539-5.96-1.617-1.7-1.078-3.03-2.587-3.99-4.525-.94-1.939-1.42-4.204-1.42-6.796 0-2.613.48-4.895 1.42-6.844.96-1.949 2.29-3.463 3.99-4.541 1.71-1.078 3.7-1.618 5.96-1.618 2.27 0 4.25.54 5.95 1.618 1.71 1.078 3.04 2.592 3.98 4.541.96 1.949 1.44 4.231 1.44 6.844 0 2.592-.48 4.857-1.44 6.796-.94 1.938-2.27 3.447-3.98 4.525-1.7 1.078-3.68 1.617-5.95 1.617Zm0-3.463c1.72 0 3.14-.441 4.25-1.323 1.11-.882 1.93-2.042 2.47-3.48.53-1.437.8-2.995.8-4.672 0-1.677-.27-3.239-.8-4.688-.54-1.448-1.36-2.619-2.47-3.512-1.11-.893-2.53-1.339-4.25-1.339-1.72 0-3.13.446-4.25 1.339-1.11.893-1.93 2.064-2.46 3.512-.54 1.449-.8 3.011-.8 4.688 0 1.677.26 3.235.8 4.672.53 1.438 1.35 2.598 2.46 3.48 1.12.882 2.53 1.323 4.25 1.323Zm28.43-22.151v3.267h-13.53v-3.267h13.53Zm-9.48 25.091v-28.554c0-1.437.34-2.635 1.02-3.594a6.234 6.234 0 0 1 2.63-2.156 8.297 8.297 0 0 1 3.41-.719c.95 0 1.72.077 2.32.229.6.153 1.05.294 1.34.425l-1.11 3.332c-.2-.065-.47-.147-.82-.245-.33-.098-.78-.147-1.34-.147-1.27 0-2.19.321-2.76.964-.55.642-.83 1.584-.83 2.826v27.639h-3.86Zm30.3 9.409a8.54 8.54 0 0 1-1.75-.163c-.51-.098-.86-.196-1.06-.294l.98-3.398c.94.24 1.77.327 2.49.261.71-.065 1.35-.386 1.91-.963.56-.567 1.08-1.487 1.55-2.761l.72-1.96-9.28-25.222h4.18l6.93 19.995h.26l6.92-19.995h4.19l-10.65 28.75c-.48 1.296-1.08 2.369-1.78 3.218-.71.861-1.53 1.498-2.47 1.911-.93.414-1.97.621-3.14.621Zm32.42-8.886c-2.27 0-4.25-.539-5.96-1.617-1.7-1.078-3.03-2.587-3.99-4.525-.95-1.939-1.42-4.204-1.42-6.796 0-2.613.47-4.895 1.42-6.844.96-1.949 2.29-3.463 3.99-4.541 1.71-1.078 3.69-1.618 5.96-1.618 2.26 0 4.25.54 5.95 1.618 1.71 1.078 3.03 2.592 3.98 4.541.96 1.949 1.44 4.231 1.44 6.844 0 2.592-.48 4.857-1.44 6.796-.95 1.938-2.27 3.447-3.98 4.525-1.7 1.078-3.69 1.617-5.95 1.617Zm0-3.463c1.72 0 3.14-.441 4.25-1.323 1.11-.882 1.93-2.042 2.46-3.48.54-1.437.8-2.995.8-4.672 0-1.677-.26-3.239-.8-4.688-.53-1.448-1.35-2.619-2.46-3.512-1.11-.893-2.53-1.339-4.25-1.339-1.72 0-3.14.446-4.25 1.339-1.11.893-1.93 2.064-2.46 3.512-.54 1.449-.8 3.011-.8 4.688 0 1.677.26 3.235.8 4.672.53 1.438 1.35 2.598 2.46 3.48 1.11.882 2.53 1.323 4.25 1.323Zm33.07-7.318v-14.833h3.85v25.091h-3.85v-4.247h-.27c-.58 1.274-1.5 2.358-2.74 3.251-1.24.882-2.81 1.323-4.7 1.323-1.57 0-2.97-.343-4.19-1.029-1.22-.697-2.17-1.743-2.87-3.137-.7-1.404-1.05-3.174-1.05-5.309v-15.943h3.86v15.682c0 1.83.51 3.289 1.53 4.378 1.04 1.089 2.36 1.633 3.96 1.633.96 0 1.93-.245 2.92-.735 1-.49 1.84-1.241 2.52-2.254.68-1.013 1.03-2.303 1.03-3.871Zm10.91 10.258v-25.091h3.73v3.79h.26c.46-1.242 1.28-2.249 2.48-3.022 1.2-.773 2.55-1.16 4.05-1.16.29 0 .64.006 1.06.016.43.011.75.028.97.049v3.921c-.13-.033-.43-.082-.9-.147a8.86 8.86 0 0 0-1.45-.114c-1.22 0-2.31.256-3.27.767a5.822 5.822 0 0 0-2.26 2.091c-.54.882-.81 1.89-.81 3.022v15.878h-3.86Zm40.18 9.932c-1.86 0-3.46-.24-4.8-.719-1.34-.468-2.46-1.089-3.35-1.862-.88-.762-1.58-1.579-2.11-2.45l3.08-2.157c.34.458.78.981 1.32 1.569.53.599 1.26 1.116 2.19 1.551.93.447 2.16.67 3.67.67 2.03 0 3.7-.49 5.02-1.47 1.32-.98 1.97-2.516 1.97-4.607v-5.096h-.32c-.29.457-.69 1.024-1.21 1.699-.51.664-1.25 1.258-2.22 1.78-.96.512-2.26.768-3.89.768-2.03 0-3.84-.479-5.46-1.437-1.6-.959-2.87-2.353-3.8-4.182-.93-1.83-1.39-4.051-1.39-6.665 0-2.57.45-4.808 1.35-6.714.91-1.916 2.17-3.398 3.78-4.443 1.61-1.056 3.47-1.585 5.58-1.585 1.64 0 2.93.273 3.89.817.97.534 1.71 1.144 2.22 1.83.53.675.93 1.23 1.21 1.666h.39v-3.986h3.73v25.81c0 2.156-.49 3.909-1.47 5.26-.97 1.361-2.28 2.358-3.92 2.989-1.63.643-3.45.964-5.46.964Zm-.13-13.787c1.55 0 2.86-.354 3.92-1.062 1.07-.708 1.88-1.726 2.44-3.054.55-1.329.83-2.919.83-4.77 0-1.808-.27-3.404-.82-4.787-.54-1.383-1.35-2.466-2.41-3.25-1.07-.784-2.39-1.176-3.96-1.176-1.63 0-2.99.413-4.08 1.241-1.08.828-1.89 1.938-2.44 3.332-.53 1.394-.8 2.941-.8 4.64 0 1.742.28 3.283.82 4.623.56 1.328 1.37 2.374 2.45 3.136 1.09.751 2.44 1.127 4.05 1.127Zm25.42 4.443c-1.59 0-3.03-.299-4.33-.898a7.463 7.463 0 0 1-3.09-2.63c-.76-1.155-1.14-2.549-1.14-4.182 0-1.438.28-2.603.85-3.496a5.993 5.993 0 0 1 2.27-2.123 11.92 11.92 0 0 1 3.14-1.144c1.15-.261 2.31-.468 3.48-.621 1.52-.196 2.76-.343 3.7-.441.96-.109 1.66-.288 2.09-.539.45-.25.67-.686.67-1.307v-.13c0-1.612-.44-2.864-1.32-3.757-.87-.893-2.19-1.34-3.97-1.34-1.84 0-3.28.403-4.33 1.209-1.04.806-1.78 1.666-2.2 2.581l-3.66-1.307c.65-1.524 1.52-2.711 2.61-3.561 1.1-.86 2.3-1.459 3.6-1.797 1.3-.348 2.59-.523 3.85-.523.81 0 1.73.099 2.78.295 1.05.185 2.07.571 3.05 1.159.99.588 1.82 1.476 2.47 2.663.65 1.187.98 2.777.98 4.77v16.531h-3.86v-3.398h-.19c-.26.545-.7 1.128-1.31 1.748-.61.621-1.42 1.149-2.43 1.585-1.01.435-2.25.653-3.71.653Zm.59-3.463c1.52 0 2.81-.299 3.85-.898 1.06-.599 1.85-1.372 2.39-2.32.54-.947.81-1.944.81-2.989v-3.529c-.16.196-.52.376-1.07.539-.55.153-1.18.289-1.9.409-.71.109-1.4.207-2.07.294-.67.076-1.21.141-1.62.196-1 .13-1.94.343-2.81.637-.86.283-1.56.713-2.09 1.29-.52.567-.78 1.34-.78 2.32 0 1.339.49 2.352 1.48 3.038 1 .676 2.27 1.013 3.81 1.013Zm21.8-30.579v33.454h-3.85v-33.454h3.85Zm14.45 34.042c-1.59 0-3.04-.299-4.33-.898-1.3-.61-2.33-1.487-3.09-2.63-.76-1.155-1.14-2.549-1.14-4.182 0-1.438.28-2.603.85-3.496a5.922 5.922 0 0 1 2.27-2.123 11.85 11.85 0 0 1 3.13-1.144c1.16-.261 2.32-.468 3.48-.621 1.53-.196 2.76-.343 3.71-.441.96-.109 1.66-.288 2.09-.539.45-.25.67-.686.67-1.307v-.13c0-1.612-.44-2.864-1.32-3.757-.87-.893-2.2-1.34-3.97-1.34-1.84 0-3.29.403-4.33 1.209-1.05.806-1.78 1.666-2.21 2.581l-3.66-1.307c.66-1.524 1.53-2.711 2.62-3.561 1.1-.86 2.3-1.459 3.59-1.797 1.31-.348 2.59-.523 3.86-.523.8 0 1.73.099 2.77.295 1.06.185 2.08.571 3.06 1.159.99.588 1.81 1.476 2.47 2.663.65 1.187.98 2.777.98 4.77v16.531h-3.86v-3.398h-.2c-.26.545-.69 1.128-1.3 1.748-.61.621-1.42 1.149-2.44 1.585-1.01.435-2.25.653-3.7.653Zm.58-3.463c1.53 0 2.81-.299 3.86-.898 1.06-.599 1.85-1.372 2.38-2.32a5.86 5.86 0 0 0 .82-2.989v-3.529c-.16.196-.52.376-1.08.539-.54.153-1.17.289-1.89.409-.71.109-1.4.207-2.08.294-.66.076-1.2.141-1.61.196-1.01.13-1.94.343-2.81.637-.86.283-1.56.713-2.09 1.29-.53.567-.79 1.34-.79 2.32 0 1.339.5 2.352 1.49 3.038 1 .676 2.27 1.013 3.8 1.013Zm20.83-22.216 6.01 10.259 6.01-10.259h4.44l-8.1 12.546 8.1 12.545h-4.44l-6.01-9.736-6.01 9.736h-4.45l7.98-12.545-7.98-12.546h4.45Zm24.45 34.5c-.66 0-1.24-.054-1.75-.163-.51-.098-.87-.196-1.06-.294l.98-3.398c.93.24 1.76.327 2.48.261.72-.065 1.36-.386 1.91-.963.57-.567 1.09-1.487 1.55-2.761l.72-1.96-9.28-25.222h4.19l6.92 19.995h.26l6.93-19.995h4.18l-10.65 28.75c-.48 1.296-1.07 2.369-1.78 3.218-.71.861-1.53 1.498-2.47 1.911-.92.414-1.97.621-3.13.621Z"/>
    <path fill="#fff" d="M839.688 97.448c-2.667 0-4.8-.768-6.4-2.304-1.579-1.557-2.368-3.819-2.368-6.784v-5.12c0-2.965.789-5.216 2.368-6.752 1.6-1.557 3.733-2.336 6.4-2.336 2.688 0 4.821.779 6.4 2.336 1.6 1.536 2.4 3.787 2.4 6.752v5.12c0 2.965-.8 5.227-2.4 6.784-1.579 1.536-3.712 2.304-6.4 2.304Zm0-2.4c1.941 0 3.445-.576 4.512-1.728 1.067-1.173 1.6-2.795 1.6-4.864v-5.312c0-2.07-.533-3.68-1.6-4.832-1.067-1.173-2.571-1.76-4.512-1.76-1.92 0-3.413.587-4.48 1.76-1.067 1.152-1.6 2.763-1.6 4.832v5.312c0 2.07.533 3.69 1.6 4.864 1.067 1.152 2.56 1.728 4.48 1.728ZM853.466 97V74.6h8.576c1.344 0 2.539.267 3.584.8 1.067.512 1.91 1.248 2.528 2.208.619.96.928 2.123.928 3.488v.416c0 1.344-.32 2.507-.96 3.488-.618.96-1.461 1.696-2.528 2.208-1.066.512-2.25.768-3.552.768h-5.888V97h-2.688Zm2.688-11.456h5.6c1.43 0 2.56-.352 3.392-1.056.832-.725 1.248-1.739 1.248-3.04v-.32c0-1.301-.416-2.304-1.248-3.008-.81-.725-1.941-1.088-3.392-1.088h-5.6v8.512ZM873.185 97V74.6h13.792v2.432h-11.104v7.488h10.208v2.432h-10.208v7.616h11.264V97h-13.952Zm18.531 0V74.6h5.216l7.808 20.704h.416V74.6h2.656V97h-5.216l-7.776-20.736h-.448V97h-2.656Zm37.894.448c-1.622 0-3.072-.288-4.352-.864-1.28-.576-2.294-1.44-3.04-2.592-.726-1.173-1.088-2.635-1.088-4.384v-.672h2.656v.672c0 1.856.544 3.243 1.632 4.16 1.088.896 2.485 1.344 4.192 1.344 1.749 0 3.082-.395 4-1.184.917-.79 1.376-1.781 1.376-2.976 0-.832-.214-1.493-.64-1.984-.406-.49-.982-.885-1.728-1.184-.747-.32-1.622-.597-2.624-.832l-1.664-.416c-1.302-.341-2.454-.757-3.456-1.248-1.003-.49-1.792-1.13-2.368-1.92-.555-.81-.832-1.845-.832-3.104 0-1.259.309-2.347.928-3.264.64-.917 1.525-1.621 2.656-2.112 1.152-.49 2.474-.736 3.968-.736 1.514 0 2.869.267 4.064.8 1.216.512 2.165 1.28 2.848 2.304.704 1.003 1.056 2.272 1.056 3.808v1.344h-2.656v-1.344c0-1.088-.235-1.963-.704-2.624-.448-.661-1.078-1.152-1.888-1.472-.79-.32-1.696-.48-2.72-.48-1.472 0-2.656.33-3.552.992-.896.64-1.344 1.557-1.344 2.752 0 .79.192 1.43.576 1.92.384.49.928.896 1.632 1.216.704.299 1.546.565 2.528.8l1.664.416c1.301.277 2.464.661 3.488 1.152 1.045.47 1.877 1.12 2.496 1.952.618.81.928 1.877.928 3.2 0 1.323-.331 2.475-.992 3.456-.662.981-1.6 1.75-2.816 2.304-1.195.533-2.603.8-4.224.8Zm20.797 0c-2.667 0-4.8-.768-6.4-2.304-1.579-1.557-2.368-3.819-2.368-6.784v-5.12c0-2.965.789-5.216 2.368-6.752 1.6-1.557 3.733-2.336 6.4-2.336 2.688 0 4.821.779 6.4 2.336 1.6 1.536 2.4 3.787 2.4 6.752v5.12c0 2.965-.8 5.227-2.4 6.784-1.579 1.536-3.712 2.304-6.4 2.304Zm0-2.4c1.941 0 3.445-.576 4.512-1.728 1.066-1.173 1.6-2.795 1.6-4.864v-5.312c0-2.07-.534-3.68-1.6-4.832-1.067-1.173-2.571-1.76-4.512-1.76-1.92 0-3.414.587-4.48 1.76-1.067 1.152-1.6 2.763-1.6 4.832v5.312c0 2.07.533 3.69 1.6 4.864 1.066 1.152 2.56 1.728 4.48 1.728Zm21.874 2.4c-1.664 0-3.115-.299-4.352-.896a6.553 6.553 0 0 1-2.88-2.656c-.683-1.195-1.024-2.656-1.024-4.384V74.6h2.656v14.944c0 1.835.491 3.21 1.472 4.128.981.917 2.357 1.376 4.128 1.376s3.147-.459 4.128-1.376c.981-.917 1.472-2.293 1.472-4.128V74.6h2.688v14.912c0 1.728-.341 3.19-1.024 4.384-.683 1.173-1.653 2.059-2.912 2.656-1.237.597-2.688.896-4.352.896ZM985.998 97V74.6h9.056c1.386 0 2.602.245 3.648.736 1.066.47 1.898 1.152 2.498 2.048.59.875.89 1.93.89 3.168v.352c0 1.472-.35 2.635-1.05 3.488-.71.853-1.538 1.43-2.498 1.728v.448c.768.021 1.397.277 1.888.768.51.47.77 1.184.77 2.144V97h-2.658v-7.2c0-.64-.182-1.13-.544-1.472-.342-.341-.864-.512-1.568-.512h-7.744V97h-2.688Zm2.688-11.616h6.112c1.472 0 2.602-.352 3.392-1.056.81-.725 1.216-1.728 1.216-3.008v-.224c0-1.28-.395-2.272-1.184-2.976-.79-.725-1.931-1.088-3.424-1.088h-6.112v8.352Zm26.094 12.064c-2.67 0-4.79-.768-6.37-2.304-1.58-1.557-2.36-3.819-2.36-6.784v-5.12c0-2.965.78-5.216 2.36-6.752 1.58-1.557 3.7-2.336 6.37-2.336 2.65 0 4.67.736 6.08 2.208 1.43 1.472 2.15 3.488 2.15 6.048v.16h-2.66v-.256c0-1.685-.46-3.061-1.38-4.128-.89-1.088-2.29-1.632-4.19-1.632-1.9 0-3.38.587-4.45 1.76-1.06 1.152-1.6 2.773-1.6 4.864v5.248c0 2.09.54 3.723 1.6 4.896 1.07 1.152 2.55 1.728 4.45 1.728 1.9 0 3.3-.533 4.19-1.6.92-1.088 1.38-2.475 1.38-4.16v-.512h2.66v.416c0 2.56-.72 4.576-2.15 6.048-1.41 1.472-3.43 2.208-6.08 2.208Zm12.94-.448V74.6h13.79v2.432h-11.11v7.488h10.21v2.432h-10.21v7.616h11.27V97h-13.95Zm67.08 0 6.91-22.4h4.74l6.91 22.4h-2.78l-1.73-5.664h-9.54L1097.58 97h-2.78Zm5.18-8.096h8.16l-3.84-12.672h-.44l-3.88 12.672Zm25.05 8.544c-2.66 0-4.8-.768-6.4-2.304-1.58-1.557-2.37-3.819-2.37-6.784v-5.12c0-2.965.79-5.216 2.37-6.752 1.6-1.557 3.74-2.336 6.4-2.336 2.69 0 4.82.779 6.4 2.336 1.6 1.536 2.4 3.787 2.4 6.752v5.12c0 2.965-.8 5.227-2.4 6.784-1.58 1.536-3.71 2.304-6.4 2.304Zm0-2.4c1.94 0 3.45-.576 4.51-1.728 1.07-1.173 1.6-2.795 1.6-4.864v-5.312c0-2.07-.53-3.68-1.6-4.832-1.06-1.173-2.57-1.76-4.51-1.76-1.92 0-3.41.587-4.48 1.76-1.06 1.152-1.6 2.763-1.6 4.832v5.312c0 2.07.54 3.69 1.6 4.864 1.07 1.152 2.56 1.728 4.48 1.728Zm21.24 2.4c-1.63 0-3.08-.288-4.36-.864a6.948 6.948 0 0 1-3.04-2.592c-.72-1.173-1.08-2.635-1.08-4.384v-.672h2.65v.672c0 1.856.55 3.243 1.63 4.16 1.09.896 2.49 1.344 4.2 1.344 1.75 0 3.08-.395 4-1.184.91-.79 1.37-1.781 1.37-2.976 0-.832-.21-1.493-.64-1.984-.4-.49-.98-.885-1.73-1.184-.74-.32-1.62-.597-2.62-.832l-1.66-.416c-1.31-.341-2.46-.757-3.46-1.248-1-.49-1.79-1.13-2.37-1.92-.55-.81-.83-1.845-.83-3.104 0-1.259.31-2.347.93-3.264.64-.917 1.52-1.621 2.65-2.112 1.16-.49 2.48-.736 3.97-.736 1.52 0 2.87.267 4.07.8 1.21.512 2.16 1.28 2.84 2.304.71 1.003 1.06 2.272 1.06 3.808v1.344h-2.66v-1.344c0-1.088-.23-1.963-.7-2.624-.45-.661-1.08-1.152-1.89-1.472-.79-.32-1.69-.48-2.72-.48-1.47 0-2.65.33-3.55.992-.9.64-1.34 1.557-1.34 2.752 0 .79.19 1.43.57 1.92.39.49.93.896 1.63 1.216.71.299 1.55.565 2.53.8l1.67.416c1.3.277 2.46.661 3.48 1.152 1.05.47 1.88 1.12 2.5 1.952.62.81.93 1.877.93 3.2 0 1.323-.33 2.475-.99 3.456-.67.981-1.6 1.75-2.82 2.304-1.19.533-2.6.8-4.22.8Zm12.67-.448V74.6h8.57c1.35 0 2.54.267 3.59.8a6.086 6.086 0 0 1 2.52 2.208c.62.96.93 2.123.93 3.488v.416c0 1.344-.32 2.507-.96 3.488a6.052 6.052 0 0 1-2.53 2.208c-1.06.512-2.25.768-3.55.768h-5.89V97h-2.68Zm2.68-11.456h5.6c1.43 0 2.56-.352 3.4-1.056.83-.725 1.24-1.739 1.24-3.04v-.32c0-1.301-.41-2.304-1.24-3.008-.82-.725-1.95-1.088-3.4-1.088h-5.6v8.512ZM1226.8 97l6.91-22.4h4.74l6.91 22.4h-2.78l-1.73-5.664h-9.54L1229.58 97h-2.78Zm5.18-8.096h8.16l-3.84-12.672h-.44l-3.88 12.672ZM1249.22 97V74.6h5.21l7.81 20.704h.42V74.6h2.65V97h-5.21l-7.78-20.736h-.45V97h-2.65Zm20.69 0v-2.4h3.14V77h-3.14v-2.4h8.74c2.94 0 5.21.747 6.81 2.24 1.62 1.493 2.43 3.787 2.43 6.88v4.16c0 3.115-.81 5.419-2.43 6.912-1.6 1.472-3.87 2.208-6.81 2.208h-8.74Zm5.82-2.432h2.92c2.17 0 3.81-.533 4.92-1.6 1.11-1.067 1.67-2.72 1.67-4.96v-4.384c0-2.283-.56-3.947-1.67-4.992-1.11-1.045-2.75-1.568-4.92-1.568h-2.92v17.504ZM1292.69 97V74.6h9.05c1.39 0 2.6.245 3.65.736 1.07.47 1.9 1.152 2.5 2.048.59.875.89 1.93.89 3.168v.352c0 1.472-.35 2.635-1.05 3.488-.71.853-1.54 1.43-2.5 1.728v.448c.77.021 1.4.277 1.89.768.51.47.77 1.184.77 2.144V97h-2.66v-7.2c0-.64-.18-1.13-.54-1.472-.35-.341-.87-.512-1.57-.512h-7.75V97h-2.68Zm2.68-11.616h6.12c1.47 0 2.6-.352 3.39-1.056.81-.725 1.21-1.728 1.21-3.008v-.224c0-1.28-.39-2.272-1.18-2.976-.79-.725-1.93-1.088-3.42-1.088h-6.12v8.352Zm26.13 12.064c-2.67 0-4.8-.768-6.4-2.304-1.58-1.557-2.37-3.819-2.37-6.784v-5.12c0-2.965.79-5.216 2.37-6.752 1.6-1.557 3.73-2.336 6.4-2.336 2.69 0 4.82.779 6.4 2.336 1.6 1.536 2.4 3.787 2.4 6.752v5.12c0 2.965-.8 5.227-2.4 6.784-1.58 1.536-3.71 2.304-6.4 2.304Zm0-2.4c1.94 0 3.45-.576 4.51-1.728 1.07-1.173 1.6-2.795 1.6-4.864v-5.312c0-2.07-.53-3.68-1.6-4.832-1.06-1.173-2.57-1.76-4.51-1.76-1.92 0-3.41.587-4.48 1.76-1.07 1.152-1.6 2.763-1.6 4.832v5.312c0 2.07.53 3.69 1.6 4.864 1.07 1.152 2.56 1.728 4.48 1.728ZM1335.28 97V74.6h2.69V97h-2.69Zm7.26 0v-2.4h3.13V77h-3.13v-2.4h8.73c2.95 0 5.22.747 6.82 2.24 1.62 1.493 2.43 3.787 2.43 6.88v4.16c0 3.115-.81 5.419-2.43 6.912-1.6 1.472-3.87 2.208-6.82 2.208h-8.73Zm5.82-2.432h2.91c2.18 0 3.82-.533 4.93-1.6 1.11-1.067 1.66-2.72 1.66-4.96v-4.384c0-2.283-.55-3.947-1.66-4.992-1.11-1.045-2.75-1.568-4.93-1.568h-2.91v17.504Zm83.66 2.88c-1.63 0-3.08-.288-4.36-.864a6.948 6.948 0 0 1-3.04-2.592c-.72-1.173-1.08-2.635-1.08-4.384v-.672h2.65v.672c0 1.856.55 3.243 1.63 4.16 1.09.896 2.49 1.344 4.2 1.344 1.75 0 3.08-.395 4-1.184.91-.79 1.37-1.781 1.37-2.976 0-.832-.21-1.493-.64-1.984-.4-.49-.98-.885-1.73-1.184-.74-.32-1.62-.597-2.62-.832l-1.66-.416c-1.31-.341-2.46-.757-3.46-1.248-1-.49-1.79-1.13-2.37-1.92-.55-.81-.83-1.845-.83-3.104 0-1.259.31-2.347.93-3.264.64-.917 1.52-1.621 2.65-2.112 1.16-.49 2.48-.736 3.97-.736 1.52 0 2.87.267 4.07.8 1.21.512 2.16 1.28 2.84 2.304.71 1.003 1.06 2.272 1.06 3.808v1.344h-2.66v-1.344c0-1.088-.23-1.963-.7-2.624-.45-.661-1.08-1.152-1.89-1.472-.79-.32-1.69-.48-2.72-.48-1.47 0-2.65.33-3.55.992-.9.64-1.34 1.557-1.34 2.752 0 .79.19 1.43.57 1.92.39.49.93.896 1.63 1.216.71.299 1.55.565 2.53.8l1.67.416c1.3.277 2.46.661 3.48 1.152 1.05.47 1.88 1.12 2.5 1.952.62.81.93 1.877.93 3.2 0 1.323-.33 2.475-.99 3.456-.67.981-1.6 1.75-2.82 2.304-1.19.533-2.6.8-4.22.8Zm12.67-.448V74.6h13.79v2.432h-11.11v7.488h10.21v2.432h-10.21v7.616h11.27V97h-13.95Zm26.62.448c-2.66 0-4.79-.768-6.37-2.304-1.57-1.557-2.36-3.819-2.36-6.784v-5.12c0-2.965.79-5.216 2.36-6.752 1.58-1.557 3.71-2.336 6.37-2.336 2.65 0 4.67.736 6.08 2.208 1.43 1.472 2.15 3.488 2.15 6.048v.16h-2.66v-.256c0-1.685-.46-3.061-1.38-4.128-.89-1.088-2.29-1.632-4.19-1.632-1.9 0-3.38.587-4.45 1.76-1.06 1.152-1.6 2.773-1.6 4.864v5.248c0 2.09.54 3.723 1.6 4.896 1.07 1.152 2.55 1.728 4.45 1.728 1.9 0 3.3-.533 4.19-1.6.92-1.088 1.38-2.475 1.38-4.16v-.512h2.66v.416c0 2.56-.72 4.576-2.15 6.048-1.41 1.472-3.43 2.208-6.08 2.208Zm21.03 0c-1.66 0-3.11-.299-4.35-.896a6.521 6.521 0 0 1-2.88-2.656c-.68-1.195-1.02-2.656-1.02-4.384V74.6h2.65v14.944c0 1.835.49 3.21 1.48 4.128.98.917 2.35 1.376 4.12 1.376s3.15-.459 4.13-1.376c.98-.917 1.47-2.293 1.47-4.128V74.6h2.69v14.912c0 1.728-.34 3.19-1.02 4.384a6.594 6.594 0 0 1-2.91 2.656c-1.24.597-2.69.896-4.36.896Zm13.72-.448V74.6h9.06c1.38 0 2.6.245 3.64.736 1.07.47 1.9 1.152 2.5 2.048.6.875.9 1.93.9 3.168v.352c0 1.472-.36 2.635-1.06 3.488-.7.853-1.54 1.43-2.5 1.728v.448c.77.021 1.4.277 1.89.768.51.47.77 1.184.77 2.144V97h-2.66v-7.2c0-.64-.18-1.13-.54-1.472-.34-.341-.86-.512-1.57-.512h-7.74V97h-2.69Zm2.69-11.616h6.11c1.47 0 2.6-.352 3.39-1.056.81-.725 1.22-1.728 1.22-3.008v-.224c0-1.28-.4-2.272-1.19-2.976-.79-.725-1.93-1.088-3.42-1.088h-6.11v8.352Zm18 11.616V74.6h2.69V97h-2.69Zm13.81 0V77.032h-7.2V74.6h17.09v2.432h-7.2V97h-2.69Zm19.67 0v-8.544l-7.97-13.856h3.07l6.02 10.752h.45l6.01-10.752h3.07l-7.96 13.856V97h-2.69Zm72.43.448c-2.67 0-4.79-.768-6.37-2.304-1.58-1.557-2.37-3.819-2.37-6.784v-5.12c0-2.965.79-5.216 2.37-6.752 1.58-1.557 3.7-2.336 6.37-2.336 2.64 0 4.67.736 6.08 2.208 1.43 1.472 2.14 3.488 2.14 6.048v.16h-2.66v-.256c0-1.685-.45-3.061-1.37-4.128-.9-1.088-2.3-1.632-4.19-1.632-1.9 0-3.39.587-4.45 1.76-1.07 1.152-1.6 2.773-1.6 4.864v5.248c0 2.09.53 3.723 1.6 4.896 1.06 1.152 2.55 1.728 4.45 1.728 1.89 0 3.29-.533 4.19-1.6.92-1.088 1.37-2.475 1.37-4.16v-.512h2.66v.416c0 2.56-.71 4.576-2.14 6.048-1.41 1.472-3.44 2.208-6.08 2.208Zm21.03 0c-1.67 0-3.12-.299-4.35-.896a6.521 6.521 0 0 1-2.88-2.656c-.69-1.195-1.03-2.656-1.03-4.384V74.6h2.66v14.944c0 1.835.49 3.21 1.47 4.128.98.917 2.36 1.376 4.13 1.376s3.14-.459 4.13-1.376c.98-.917 1.47-2.293 1.47-4.128V74.6h2.69v14.912c0 1.728-.35 3.19-1.03 4.384-.68 1.173-1.65 2.059-2.91 2.656-1.24.597-2.69.896-4.35.896Zm21.17 0c-1.62 0-3.07-.288-4.35-.864-1.28-.576-2.3-1.44-3.04-2.592-.73-1.173-1.09-2.635-1.09-4.384v-.672h2.66v.672c0 1.856.54 3.243 1.63 4.16 1.09.896 2.48 1.344 4.19 1.344 1.75 0 3.08-.395 4-1.184.92-.79 1.38-1.781 1.38-2.976 0-.832-.22-1.493-.64-1.984-.41-.49-.99-.885-1.73-1.184-.75-.32-1.62-.597-2.63-.832l-1.66-.416c-1.3-.341-2.45-.757-3.46-1.248-1-.49-1.79-1.13-2.36-1.92-.56-.81-.84-1.845-.84-3.104 0-1.259.31-2.347.93-3.264.64-.917 1.53-1.621 2.66-2.112 1.15-.49 2.47-.736 3.97-.736 1.51 0 2.87.267 4.06.8 1.22.512 2.17 1.28 2.85 2.304.7 1.003 1.05 2.272 1.05 3.808v1.344h-2.65v-1.344c0-1.088-.24-1.963-.71-2.624-.44-.661-1.07-1.152-1.88-1.472-.79-.32-1.7-.48-2.72-.48-1.48 0-2.66.33-3.56.992-.89.64-1.34 1.557-1.34 2.752 0 .79.19 1.43.58 1.92.38.49.92.896 1.63 1.216.7.299 1.54.565 2.53.8l1.66.416c1.3.277 2.46.661 3.49 1.152 1.04.47 1.88 1.12 2.49 1.952.62.81.93 1.877.93 3.2 0 1.323-.33 2.475-.99 3.456-.66.981-1.6 1.75-2.82 2.304-1.19.533-2.6.8-4.22.8Zm17.2-.448V77.032h-7.2V74.6h17.09v2.432h-7.2V97h-2.69Zm20.94.448c-2.67 0-4.8-.768-6.4-2.304-1.58-1.557-2.37-3.819-2.37-6.784v-5.12c0-2.965.79-5.216 2.37-6.752 1.6-1.557 3.73-2.336 6.4-2.336 2.69 0 4.82.779 6.4 2.336 1.6 1.536 2.4 3.787 2.4 6.752v5.12c0 2.965-.8 5.227-2.4 6.784-1.58 1.536-3.71 2.304-6.4 2.304Zm0-2.4c1.94 0 3.45-.576 4.51-1.728 1.07-1.173 1.6-2.795 1.6-4.864v-5.312c0-2.07-.53-3.68-1.6-4.832-1.06-1.173-2.57-1.76-4.51-1.76-1.92 0-3.41.587-4.48 1.76-1.07 1.152-1.6 2.763-1.6 4.832v5.312c0 2.07.53 3.69 1.6 4.864 1.07 1.152 2.56 1.728 4.48 1.728ZM1726.78 97V74.6h5.12l5.95 20.704h.42l5.95-20.704h5.12V97h-2.59V76.36h-.45L1740.38 97h-4.64l-5.92-20.64h-.45V97h-2.59Zm36.91 0V74.6h9.05c1.39 0 2.6.245 3.65.736 1.07.47 1.9 1.152 2.5 2.048.59.875.89 1.93.89 3.168v.352c0 1.472-.35 2.635-1.05 3.488-.71.853-1.54 1.43-2.5 1.728v.448c.77.021 1.4.277 1.89.768.51.47.77 1.184.77 2.144V97h-2.66v-7.2c0-.64-.18-1.13-.54-1.472-.35-.341-.87-.512-1.57-.512h-7.75V97h-2.68Zm2.68-11.616h6.12c1.47 0 2.6-.352 3.39-1.056.81-.725 1.21-1.728 1.21-3.008v-.224c0-1.28-.39-2.272-1.18-2.976-.79-.725-1.93-1.088-3.42-1.088h-6.12v8.352Zm26.13 12.064c-2.67 0-4.8-.768-6.4-2.304-1.58-1.557-2.37-3.819-2.37-6.784v-5.12c0-2.965.79-5.216 2.37-6.752 1.6-1.557 3.73-2.336 6.4-2.336 2.69 0 4.82.779 6.4 2.336 1.6 1.536 2.4 3.787 2.4 6.752v5.12c0 2.965-.8 5.227-2.4 6.784-1.58 1.536-3.71 2.304-6.4 2.304Zm0-2.4c1.94 0 3.45-.576 4.51-1.728 1.07-1.173 1.6-2.795 1.6-4.864v-5.312c0-2.07-.53-3.68-1.6-4.832-1.06-1.173-2.57-1.76-4.51-1.76-1.92 0-3.41.587-4.48 1.76-1.07 1.152-1.6 2.763-1.6 4.832v5.312c0 2.07.53 3.69 1.6 4.864 1.07 1.152 2.56 1.728 4.48 1.728ZM1806.28 97V74.6h5.12l5.95 20.704h.42l5.95-20.704h5.12V97h-2.59V76.36h-.45L1819.88 97h-4.64l-5.92-20.64h-.45V97h-2.59Z"/>
  </g>
  <defs>
    <clipPath id="a">
      <rect width="2660" height="1103" fill="#fff" rx="30"/>
    </clipPath>
  </defs>
</svg>
